<svg width="365" height="29" viewBox="0 0 365 29" fill="none" xmlns="http://www.w3.org/2000/svg">
<path d="M15.2238 4.03242H5.81883L4.91883 11.2774H12.5388L12.2538 13.4824H4.64883L3.73383 20.9524H13.1688L12.8838 23.2324H0.628828L3.28383 1.73742H15.5088L15.2238 4.03242ZM26.0149 10.4674C25.9349 10.5874 25.8549 10.6774 25.7749 10.7374C25.6949 10.7874 25.5949 10.8124 25.4749 10.8124C25.3349 10.8124 25.1799 10.7574 25.0099 10.6474C24.8499 10.5374 24.6499 10.4174 24.4099 10.2874C24.1799 10.1474 23.8949 10.0224 23.5549 9.91242C23.2149 9.79242 22.8049 9.73242 22.3249 9.73242C21.8749 9.73242 21.4649 9.79742 21.0949 9.92742C20.7249 10.0474 20.4049 10.2174 20.1349 10.4374C19.8649 10.6574 19.6549 10.9174 19.5049 11.2174C19.3649 11.5074 19.2949 11.8174 19.2949 12.1474C19.2949 12.6174 19.4499 12.9924 19.7599 13.2724C20.0699 13.5524 20.4599 13.7974 20.9299 14.0074C21.3999 14.2074 21.9049 14.4024 22.4449 14.5924C22.9949 14.7824 23.5049 15.0224 23.9749 15.3124C24.4449 15.6024 24.8349 15.9724 25.1449 16.4224C25.4549 16.8724 25.6099 17.4574 25.6099 18.1774C25.6099 18.8774 25.4699 19.5474 25.1899 20.1874C24.9199 20.8274 24.5249 21.3924 24.0049 21.8824C23.4949 22.3624 22.8749 22.7474 22.1449 23.0374C21.4249 23.3274 20.6149 23.4724 19.7149 23.4724C18.7449 23.4724 17.8849 23.3024 17.1349 22.9624C16.3949 22.6124 15.7899 22.1674 15.3199 21.6274L15.9799 20.6074C16.0599 20.4774 16.1549 20.3774 16.2649 20.3074C16.3749 20.2374 16.5149 20.2024 16.6849 20.2024C16.8449 20.2024 17.0049 20.2724 17.1649 20.4124C17.3249 20.5524 17.5249 20.7124 17.7649 20.8924C18.0049 21.0624 18.3049 21.2174 18.6649 21.3574C19.0349 21.4974 19.4999 21.5674 20.0599 21.5674C20.5499 21.5674 20.9899 21.4924 21.3799 21.3424C21.7799 21.1924 22.1149 20.9924 22.3849 20.7424C22.6649 20.4924 22.8749 20.2024 23.0149 19.8724C23.1649 19.5324 23.2399 19.1724 23.2399 18.7924C23.2399 18.2824 23.0849 17.8774 22.7749 17.5774C22.4649 17.2774 22.0749 17.0274 21.6049 16.8274C21.1349 16.6274 20.6299 16.4424 20.0899 16.2724C19.5499 16.0924 19.0449 15.8674 18.5749 15.5974C18.1049 15.3174 17.7149 14.9574 17.4049 14.5174C17.0949 14.0774 16.9399 13.4924 16.9399 12.7624C16.9399 12.1224 17.0649 11.5074 17.3149 10.9174C17.5749 10.3174 17.9449 9.78742 18.4249 9.32742C18.9049 8.86742 19.4849 8.50242 20.1649 8.23242C20.8549 7.95242 21.6299 7.81242 22.4899 7.81242C23.3999 7.81242 24.1999 7.96742 24.8899 8.27742C25.5899 8.57742 26.1899 8.98742 26.6899 9.50742L26.0149 10.4674ZM37.6751 10.4674C37.5951 10.5874 37.5151 10.6774 37.4351 10.7374C37.3551 10.7874 37.2551 10.8124 37.1351 10.8124C36.9951 10.8124 36.8401 10.7574 36.6701 10.6474C36.5101 10.5374 36.3101 10.4174 36.0701 10.2874C35.8401 10.1474 35.5551 10.0224 35.2151 9.91242C34.8751 9.79242 34.4651 9.73242 33.9851 9.73242C33.5351 9.73242 33.1251 9.79742 32.7551 9.92742C32.3851 10.0474 32.0651 10.2174 31.7951 10.4374C31.5251 10.6574 31.3151 10.9174 31.1651 11.2174C31.0251 11.5074 30.9551 11.8174 30.9551 12.1474C30.9551 12.6174 31.1101 12.9924 31.4201 13.2724C31.7301 13.5524 32.1201 13.7974 32.5901 14.0074C33.0601 14.2074 33.5651 14.4024 34.1051 14.5924C34.6551 14.7824 35.1651 15.0224 35.6351 15.3124C36.1051 15.6024 36.4951 15.9724 36.8051 16.4224C37.1151 16.8724 37.2701 17.4574 37.2701 18.1774C37.2701 18.8774 37.1301 19.5474 36.8501 20.1874C36.5801 20.8274 36.1851 21.3924 35.6651 21.8824C35.1551 22.3624 34.5351 22.7474 33.8051 23.0374C33.0851 23.3274 32.2751 23.4724 31.3751 23.4724C30.4051 23.4724 29.5451 23.3024 28.7951 22.9624C28.0551 22.6124 27.4501 22.1674 26.9801 21.6274L27.6401 20.6074C27.7201 20.4774 27.8151 20.3774 27.9251 20.3074C28.0351 20.2374 28.1751 20.2024 28.3451 20.2024C28.5051 20.2024 28.6651 20.2724 28.8251 20.4124C28.9851 20.5524 29.1851 20.7124 29.4251 20.8924C29.6651 21.0624 29.9651 21.2174 30.3251 21.3574C30.6951 21.4974 31.1601 21.5674 31.7201 21.5674C32.2101 21.5674 32.6501 21.4924 33.0401 21.3424C33.4401 21.1924 33.7751 20.9924 34.0451 20.7424C34.3251 20.4924 34.5351 20.2024 34.6751 19.8724C34.8251 19.5324 34.9001 19.1724 34.9001 18.7924C34.9001 18.2824 34.7451 17.8774 34.4351 17.5774C34.1251 17.2774 33.7351 17.0274 33.2651 16.8274C32.7951 16.6274 32.2901 16.4424 31.7501 16.2724C31.2101 16.0924 30.7051 15.8674 30.2351 15.5974C29.7651 15.3174 29.3751 14.9574 29.0651 14.5174C28.7551 14.0774 28.6001 13.4924 28.6001 12.7624C28.6001 12.1224 28.7251 11.5074 28.9751 10.9174C29.2351 10.3174 29.6051 9.78742 30.0851 9.32742C30.5651 8.86742 31.1451 8.50242 31.8251 8.23242C32.5151 7.95242 33.2901 7.81242 34.1501 7.81242C35.0601 7.81242 35.8601 7.96742 36.5501 8.27742C37.2501 8.57742 37.8501 8.98742 38.3501 9.50742L37.6751 10.4674ZM51.7052 11.2924C51.7052 11.9524 51.5702 12.5624 51.3002 13.1224C51.0302 13.6724 50.5352 14.1724 49.8152 14.6224C49.0952 15.0624 48.1052 15.4474 46.8452 15.7774C45.5852 16.1074 43.9652 16.3724 41.9852 16.5724C41.9752 16.6824 41.9702 16.7924 41.9702 16.9024C41.9702 17.0024 41.9702 17.1074 41.9702 17.2174C41.9702 18.5574 42.2602 19.5824 42.8402 20.2924C43.4302 20.9924 44.3152 21.3424 45.4952 21.3424C45.9752 21.3424 46.4002 21.2924 46.7702 21.1924C47.1502 21.0924 47.4852 20.9724 47.7752 20.8324C48.0752 20.6824 48.3352 20.5224 48.5552 20.3524C48.7852 20.1724 48.9952 20.0124 49.1852 19.8724C49.3752 19.7224 49.5502 19.5974 49.7102 19.4974C49.8702 19.3974 50.0302 19.3474 50.1902 19.3474C50.3702 19.3474 50.5352 19.4324 50.6852 19.6024L51.3452 20.4274C50.8352 20.9574 50.3352 21.4124 49.8452 21.7924C49.3652 22.1624 48.8702 22.4724 48.3602 22.7224C47.8502 22.9724 47.3152 23.1524 46.7552 23.2624C46.2052 23.3824 45.6102 23.4424 44.9702 23.4424C44.1002 23.4424 43.3202 23.2974 42.6302 23.0074C41.9402 22.7174 41.3552 22.3074 40.8752 21.7774C40.3952 21.2374 40.0252 20.5874 39.7652 19.8274C39.5052 19.0674 39.3752 18.2174 39.3752 17.2774C39.3752 16.4974 39.4552 15.7224 39.6152 14.9524C39.7852 14.1724 40.0252 13.4324 40.3352 12.7324C40.6552 12.0324 41.0402 11.3824 41.4902 10.7824C41.9502 10.1824 42.4702 9.66742 43.0502 9.23742C43.6402 8.79742 44.2852 8.45242 44.9852 8.20242C45.6952 7.95242 46.4552 7.82742 47.2652 7.82742C48.0352 7.82742 48.7002 7.93742 49.2602 8.15742C49.8202 8.37742 50.2802 8.65742 50.6402 8.99742C51.0002 9.33742 51.2652 9.71242 51.4352 10.1224C51.6152 10.5324 51.7052 10.9224 51.7052 11.2924ZM47.1152 9.74742C46.4852 9.74742 45.9052 9.87742 45.3752 10.1374C44.8452 10.3974 44.3752 10.7574 43.9652 11.2174C43.5552 11.6674 43.2052 12.2024 42.9152 12.8224C42.6252 13.4324 42.4002 14.0924 42.2402 14.8024C43.7802 14.6124 45.0152 14.3974 45.9452 14.1574C46.8752 13.9074 47.5902 13.6424 48.0902 13.3624C48.5902 13.0724 48.9202 12.7624 49.0802 12.4324C49.2402 12.1024 49.3202 11.7574 49.3202 11.3974C49.3202 11.2174 49.2802 11.0324 49.2002 10.8424C49.1202 10.6424 48.9902 10.4624 48.8102 10.3024C48.6402 10.1424 48.4152 10.0124 48.1352 9.91242C47.8552 9.80242 47.5152 9.74742 47.1152 9.74742ZM53.3834 23.2324L55.1984 8.02242H56.5334C57.1334 8.02242 57.4334 8.32242 57.4334 8.92242L57.2084 11.8624C58.0184 10.5224 58.9284 9.51242 59.9384 8.83242C60.9584 8.15242 62.0134 7.81242 63.1034 7.81242C64.2334 7.81242 65.1084 8.19242 65.7284 8.95242C66.3584 9.71242 66.6734 10.8224 66.6734 12.2824C66.6734 12.4824 66.6684 12.6874 66.6584 12.8974C66.6484 13.1074 66.6284 13.3274 66.5984 13.5574L65.4584 23.2324H62.7884L63.9284 13.5574C63.9484 13.3574 63.9634 13.1674 63.9734 12.9874C63.9934 12.7974 64.0034 12.6174 64.0034 12.4474C64.0034 11.6274 63.8484 11.0224 63.5384 10.6324C63.2384 10.2324 62.7634 10.0324 62.1134 10.0324C61.6334 10.0324 61.1434 10.1624 60.6434 10.4224C60.1534 10.6824 59.6784 11.0524 59.2184 11.5324C58.7584 12.0024 58.3284 12.5774 57.9284 13.2574C57.5384 13.9274 57.2034 14.6774 56.9234 15.5074L56.0534 23.2324H53.3834ZM70.4944 20.3674C70.4944 20.3074 70.4944 20.2324 70.4944 20.1424C70.5044 20.0424 70.5144 19.9024 70.5244 19.7224C70.5444 19.5424 70.5694 19.3074 70.5994 19.0174C70.6294 18.7274 70.6744 18.3474 70.7344 17.8774L71.6794 10.2724H69.9844C69.8544 10.2724 69.7444 10.2374 69.6544 10.1674C69.5744 10.0874 69.5344 9.96742 69.5344 9.80742C69.5344 9.77742 69.5394 9.71742 69.5494 9.62742C69.5594 9.53742 69.5694 9.43742 69.5794 9.32742C69.5994 9.20742 69.6144 9.08742 69.6244 8.96742C69.6444 8.84742 69.6594 8.73242 69.6694 8.62242L72.0094 8.30742L73.1344 3.61242C73.1744 3.46242 73.2494 3.34242 73.3594 3.25242C73.4694 3.15242 73.6044 3.10242 73.7644 3.10242H75.1744L74.5144 8.33742H78.5044L78.2794 10.2724H74.2744L73.3594 17.7424C73.3094 18.1524 73.2694 18.4824 73.2394 18.7324C73.2194 18.9824 73.1994 19.1824 73.1794 19.3324C73.1694 19.4824 73.1594 19.5874 73.1494 19.6474C73.1494 19.7074 73.1494 19.7524 73.1494 19.7824C73.1494 20.2924 73.2644 20.6724 73.4944 20.9224C73.7344 21.1624 74.0594 21.2824 74.4694 21.2824C74.7294 21.2824 74.9594 21.2474 75.1594 21.1774C75.3594 21.0974 75.5294 21.0124 75.6694 20.9224C75.8194 20.8324 75.9444 20.7524 76.0444 20.6824C76.1444 20.6024 76.2344 20.5624 76.3144 20.5624C76.3944 20.5624 76.4544 20.5824 76.4944 20.6224C76.5444 20.6624 76.5944 20.7274 76.6444 20.8174L77.1994 22.0924C76.7194 22.5224 76.1644 22.8624 75.5344 23.1124C74.9144 23.3524 74.2894 23.4724 73.6594 23.4724C72.6894 23.4724 71.9244 23.2074 71.3644 22.6774C70.8044 22.1474 70.5144 21.3774 70.4944 20.3674ZM84.2726 8.03742L82.4426 23.2324H79.8176L81.6476 8.03742H84.2726ZM85.2776 3.26742C85.2776 3.52742 85.2226 3.77242 85.1126 4.00242C85.0126 4.22242 84.8726 4.42242 84.6926 4.60242C84.5226 4.77242 84.3276 4.90742 84.1076 5.00742C83.8876 5.10742 83.6576 5.15742 83.4176 5.15742C83.1876 5.15742 82.9626 5.10742 82.7426 5.00742C82.5226 4.90742 82.3276 4.77242 82.1576 4.60242C81.9976 4.42242 81.8676 4.22242 81.7676 4.00242C81.6676 3.77242 81.6176 3.52742 81.6176 3.26742C81.6176 3.00742 81.6676 2.76242 81.7676 2.53242C81.8676 2.30242 82.0026 2.10242 82.1726 1.93242C82.3426 1.75242 82.5376 1.61242 82.7576 1.51242C82.9776 1.40242 83.2026 1.34742 83.4326 1.34742C83.6726 1.34742 83.9026 1.39742 84.1226 1.49742C84.3426 1.59742 84.5376 1.73742 84.7076 1.91742C84.8876 2.08742 85.0276 2.29242 85.1276 2.53242C85.2276 2.76242 85.2776 3.00742 85.2776 3.26742ZM97.9275 23.2324H96.5475C96.1975 23.2324 95.9575 23.1424 95.8275 22.9624C95.7075 22.7824 95.6475 22.5624 95.6475 22.3024L95.9175 19.2274C95.5575 19.8674 95.1675 20.4474 94.7475 20.9674C94.3375 21.4874 93.8975 21.9324 93.4275 22.3024C92.9675 22.6624 92.4825 22.9424 91.9725 23.1424C91.4625 23.3424 90.9325 23.4424 90.3825 23.4424C89.7825 23.4424 89.2375 23.3274 88.7475 23.0974C88.2575 22.8574 87.8375 22.5124 87.4875 22.0624C87.1475 21.6024 86.8825 21.0424 86.6925 20.3824C86.5025 19.7124 86.4075 18.9474 86.4075 18.0874C86.4075 17.1874 86.5175 16.3124 86.7375 15.4624C86.9675 14.6024 87.2875 13.7924 87.6975 13.0324C88.1175 12.2724 88.6175 11.5774 89.1975 10.9474C89.7775 10.3074 90.4225 9.75742 91.1325 9.29742C91.8525 8.82742 92.6225 8.46742 93.4425 8.21742C94.2625 7.95742 95.1225 7.82742 96.0225 7.82742C96.6725 7.82742 97.3025 7.88242 97.9125 7.99242C98.5325 8.09242 99.1425 8.27242 99.7425 8.53242L97.9275 23.2324ZM91.3875 21.2224C91.8775 21.2224 92.3575 21.0724 92.8275 20.7724C93.2975 20.4624 93.7425 20.0374 94.1625 19.4974C94.5825 18.9574 94.9725 18.3174 95.3325 17.5774C95.7025 16.8274 96.0275 16.0074 96.3075 15.1174L96.9525 9.89742C96.7325 9.84742 96.5125 9.81742 96.2925 9.80742C96.0825 9.78742 95.8725 9.77742 95.6625 9.77742C95.0625 9.77742 94.4825 9.87742 93.9225 10.0774C93.3625 10.2674 92.8375 10.5374 92.3475 10.8874C91.8575 11.2374 91.4125 11.6574 91.0125 12.1474C90.6125 12.6274 90.2675 13.1574 89.9775 13.7374C89.6975 14.3174 89.4775 14.9374 89.3175 15.5974C89.1575 16.2474 89.0775 16.9174 89.0775 17.6074C89.0775 20.0174 89.8475 21.2224 91.3875 21.2224ZM102.154 23.2324L104.839 1.13742H107.464L104.779 23.2324H102.154ZM127.644 5.06742C127.534 5.20742 127.429 5.31742 127.329 5.39742C127.229 5.46742 127.109 5.50242 126.969 5.50242C126.799 5.50242 126.619 5.41742 126.429 5.24742C126.239 5.06742 125.994 4.87742 125.694 4.67742C125.404 4.46742 125.049 4.27742 124.629 4.10742C124.209 3.92742 123.684 3.83742 123.054 3.83742C122.414 3.83742 121.844 3.93742 121.344 4.13742C120.844 4.33742 120.419 4.61242 120.069 4.96242C119.729 5.30242 119.469 5.70242 119.289 6.16242C119.109 6.62242 119.019 7.11742 119.019 7.64742C119.019 8.16742 119.139 8.60742 119.379 8.96742C119.619 9.31742 119.934 9.62242 120.324 9.88242C120.714 10.1324 121.159 10.3574 121.659 10.5574C122.169 10.7474 122.684 10.9474 123.204 11.1574C123.724 11.3574 124.234 11.5824 124.734 11.8324C125.244 12.0824 125.694 12.3924 126.084 12.7624C126.474 13.1324 126.789 13.5774 127.029 14.0974C127.269 14.6174 127.389 15.2474 127.389 15.9874C127.389 17.0074 127.214 17.9724 126.864 18.8824C126.514 19.7824 126.009 20.5724 125.349 21.2524C124.699 21.9324 123.909 22.4724 122.979 22.8724C122.049 23.2724 121.004 23.4724 119.844 23.4724C118.564 23.4724 117.419 23.2224 116.409 22.7224C115.409 22.2124 114.584 21.5274 113.934 20.6674L114.924 19.3324C115.004 19.2224 115.104 19.1324 115.224 19.0624C115.344 18.9924 115.474 18.9574 115.614 18.9574C115.804 18.9574 116.009 19.0724 116.229 19.3024C116.449 19.5224 116.729 19.7724 117.069 20.0524C117.409 20.3224 117.829 20.5724 118.329 20.8024C118.829 21.0224 119.454 21.1324 120.204 21.1324C120.894 21.1324 121.514 21.0224 122.064 20.8024C122.624 20.5824 123.094 20.2774 123.474 19.8874C123.864 19.4974 124.164 19.0324 124.374 18.4924C124.584 17.9424 124.689 17.3374 124.689 16.6774C124.689 16.1274 124.569 15.6724 124.329 15.3124C124.089 14.9424 123.774 14.6324 123.384 14.3824C122.994 14.1324 122.549 13.9174 122.049 13.7374C121.559 13.5474 121.049 13.3574 120.519 13.1674C119.999 12.9774 119.489 12.7624 118.989 12.5224C118.499 12.2824 118.059 11.9774 117.669 11.6074C117.279 11.2374 116.964 10.7824 116.724 10.2424C116.484 9.70242 116.364 9.03742 116.364 8.24742C116.364 7.36742 116.524 6.52242 116.844 5.71242C117.164 4.90242 117.624 4.18742 118.224 3.56742C118.824 2.94742 119.554 2.45242 120.414 2.08242C121.274 1.71242 122.244 1.52742 123.324 1.52742C124.424 1.52742 125.414 1.73742 126.294 2.15742C127.174 2.57742 127.899 3.15242 128.469 3.88242L127.644 5.06742ZM130.787 20.3674C130.787 20.3074 130.787 20.2324 130.787 20.1424C130.797 20.0424 130.807 19.9024 130.817 19.7224C130.837 19.5424 130.862 19.3074 130.892 19.0174C130.922 18.7274 130.967 18.3474 131.027 17.8774L131.972 10.2724H130.277C130.147 10.2724 130.037 10.2374 129.947 10.1674C129.867 10.0874 129.827 9.96742 129.827 9.80742C129.827 9.77742 129.832 9.71742 129.842 9.62742C129.852 9.53742 129.862 9.43742 129.872 9.32742C129.892 9.20742 129.907 9.08742 129.917 8.96742C129.937 8.84742 129.952 8.73242 129.962 8.62242L132.302 8.30742L133.427 3.61242C133.467 3.46242 133.542 3.34242 133.652 3.25242C133.762 3.15242 133.897 3.10242 134.057 3.10242H135.467L134.807 8.33742H138.797L138.572 10.2724H134.567L133.652 17.7424C133.602 18.1524 133.562 18.4824 133.532 18.7324C133.512 18.9824 133.492 19.1824 133.472 19.3324C133.462 19.4824 133.452 19.5874 133.442 19.6474C133.442 19.7074 133.442 19.7524 133.442 19.7824C133.442 20.2924 133.557 20.6724 133.787 20.9224C134.027 21.1624 134.352 21.2824 134.762 21.2824C135.022 21.2824 135.252 21.2474 135.452 21.1774C135.652 21.0974 135.822 21.0124 135.962 20.9224C136.112 20.8324 136.237 20.7524 136.337 20.6824C136.437 20.6024 136.527 20.5624 136.607 20.5624C136.687 20.5624 136.747 20.5824 136.787 20.6224C136.837 20.6624 136.887 20.7274 136.937 20.8174L137.492 22.0924C137.012 22.5224 136.457 22.8624 135.827 23.1124C135.207 23.3524 134.582 23.4724 133.952 23.4724C132.982 23.4724 132.217 23.2074 131.657 22.6774C131.097 22.1474 130.807 21.3774 130.787 20.3674ZM139.751 23.2324L141.581 8.02242H142.916C143.196 8.02242 143.416 8.08742 143.576 8.21742C143.736 8.34742 143.816 8.54742 143.816 8.81742C143.816 8.85742 143.811 8.91742 143.801 8.99742C143.801 9.06742 143.796 9.14242 143.786 9.22242C143.786 9.30242 143.781 9.37242 143.771 9.43242C143.771 9.49242 143.771 9.52742 143.771 9.53742L143.561 12.2974C144.211 10.8974 144.936 9.81742 145.736 9.05742C146.546 8.29742 147.396 7.91742 148.286 7.91742C148.706 7.91742 149.126 8.00742 149.546 8.18742L149.066 10.7524C148.596 10.5624 148.141 10.4674 147.701 10.4674C146.731 10.4674 145.866 10.9424 145.106 11.8924C144.346 12.8324 143.711 14.2624 143.201 16.1824L142.361 23.2324H139.751ZM155.337 21.3574C156.067 21.3574 156.732 21.1574 157.332 20.7574C157.932 20.3574 158.442 19.8274 158.862 19.1674C159.282 18.4974 159.607 17.7274 159.837 16.8574C160.067 15.9874 160.182 15.0774 160.182 14.1274C160.182 12.7274 159.907 11.6724 159.357 10.9624C158.807 10.2524 158.012 9.89742 156.972 9.89742C156.232 9.89742 155.562 10.0974 154.962 10.4974C154.372 10.8874 153.867 11.4174 153.447 12.0874C153.027 12.7474 152.702 13.5124 152.472 14.3824C152.242 15.2524 152.127 16.1624 152.127 17.1124C152.127 18.5124 152.397 19.5724 152.937 20.2924C153.487 21.0024 154.287 21.3574 155.337 21.3574ZM155.097 23.4424C154.267 23.4424 153.507 23.3024 152.817 23.0224C152.127 22.7324 151.532 22.3174 151.032 21.7774C150.532 21.2374 150.142 20.5774 149.862 19.7974C149.582 19.0174 149.442 18.1274 149.442 17.1274C149.442 15.8474 149.642 14.6424 150.042 13.5124C150.442 12.3824 150.987 11.3924 151.677 10.5424C152.377 9.69242 153.197 9.02242 154.137 8.53242C155.087 8.04242 156.112 7.79742 157.212 7.79742C158.042 7.79742 158.802 7.94242 159.492 8.23242C160.182 8.51242 160.777 8.92242 161.277 9.46242C161.777 10.0024 162.167 10.6674 162.447 11.4574C162.727 12.2374 162.867 13.1224 162.867 14.1124C162.867 15.3824 162.667 16.5824 162.267 17.7124C161.867 18.8424 161.317 19.8324 160.617 20.6824C159.927 21.5324 159.107 22.2074 158.157 22.7074C157.207 23.1974 156.187 23.4424 155.097 23.4424ZM170.215 1.13742L168.625 14.1424H169.09C169.29 14.1424 169.455 14.1174 169.585 14.0674C169.715 14.0074 169.86 13.8924 170.02 13.7224L175.045 8.57742C175.205 8.41742 175.36 8.28742 175.51 8.18742C175.66 8.08742 175.855 8.03742 176.095 8.03742H178.45L172.585 13.9924C172.435 14.1524 172.285 14.3024 172.135 14.4424C171.995 14.5724 171.84 14.6874 171.67 14.7874C171.83 14.9074 171.965 15.0474 172.075 15.2074C172.185 15.3674 172.295 15.5424 172.405 15.7324L176.965 23.2324H174.67C174.45 23.2324 174.27 23.1924 174.13 23.1124C174 23.0324 173.88 22.8974 173.77 22.7074L169.9 16.4824C169.77 16.2824 169.64 16.1474 169.51 16.0774C169.39 16.0074 169.19 15.9724 168.91 15.9724H168.4L167.515 23.2324H164.875L167.59 1.13742H170.215ZM190.543 11.2924C190.543 11.9524 190.408 12.5624 190.138 13.1224C189.868 13.6724 189.373 14.1724 188.653 14.6224C187.933 15.0624 186.943 15.4474 185.683 15.7774C184.423 16.1074 182.803 16.3724 180.823 16.5724C180.813 16.6824 180.808 16.7924 180.808 16.9024C180.808 17.0024 180.808 17.1074 180.808 17.2174C180.808 18.5574 181.098 19.5824 181.678 20.2924C182.268 20.9924 183.153 21.3424 184.333 21.3424C184.813 21.3424 185.238 21.2924 185.608 21.1924C185.988 21.0924 186.323 20.9724 186.613 20.8324C186.913 20.6824 187.173 20.5224 187.393 20.3524C187.623 20.1724 187.833 20.0124 188.023 19.8724C188.213 19.7224 188.388 19.5974 188.548 19.4974C188.708 19.3974 188.868 19.3474 189.028 19.3474C189.208 19.3474 189.373 19.4324 189.523 19.6024L190.183 20.4274C189.673 20.9574 189.173 21.4124 188.683 21.7924C188.203 22.1624 187.708 22.4724 187.198 22.7224C186.688 22.9724 186.153 23.1524 185.593 23.2624C185.043 23.3824 184.448 23.4424 183.808 23.4424C182.938 23.4424 182.158 23.2974 181.468 23.0074C180.778 22.7174 180.193 22.3074 179.713 21.7774C179.233 21.2374 178.863 20.5874 178.603 19.8274C178.343 19.0674 178.213 18.2174 178.213 17.2774C178.213 16.4974 178.293 15.7224 178.453 14.9524C178.623 14.1724 178.863 13.4324 179.173 12.7324C179.493 12.0324 179.878 11.3824 180.328 10.7824C180.788 10.1824 181.308 9.66742 181.888 9.23742C182.478 8.79742 183.123 8.45242 183.823 8.20242C184.533 7.95242 185.293 7.82742 186.103 7.82742C186.873 7.82742 187.538 7.93742 188.098 8.15742C188.658 8.37742 189.118 8.65742 189.478 8.99742C189.838 9.33742 190.103 9.71242 190.273 10.1224C190.453 10.5324 190.543 10.9224 190.543 11.2924ZM185.953 9.74742C185.323 9.74742 184.743 9.87742 184.213 10.1374C183.683 10.3974 183.213 10.7574 182.803 11.2174C182.393 11.6674 182.043 12.2024 181.753 12.8224C181.463 13.4324 181.238 14.0924 181.078 14.8024C182.618 14.6124 183.853 14.3974 184.783 14.1574C185.713 13.9074 186.428 13.6424 186.928 13.3624C187.428 13.0724 187.758 12.7624 187.918 12.4324C188.078 12.1024 188.158 11.7574 188.158 11.3974C188.158 11.2174 188.118 11.0324 188.038 10.8424C187.958 10.6424 187.828 10.4624 187.648 10.3024C187.478 10.1424 187.253 10.0124 186.973 9.91242C186.693 9.80242 186.353 9.74742 185.953 9.74742ZM201.502 20.8624H210.007L209.722 23.2324H198.412L201.067 1.73742H203.872L201.502 20.8624ZM217.046 8.03742L215.216 23.2324H212.591L214.421 8.03742H217.046ZM218.051 3.26742C218.051 3.52742 217.996 3.77242 217.886 4.00242C217.786 4.22242 217.646 4.42242 217.466 4.60242C217.296 4.77242 217.101 4.90742 216.881 5.00742C216.661 5.10742 216.431 5.15742 216.191 5.15742C215.961 5.15742 215.736 5.10742 215.516 5.00742C215.296 4.90742 215.101 4.77242 214.931 4.60242C214.771 4.42242 214.641 4.22242 214.541 4.00242C214.441 3.77242 214.391 3.52742 214.391 3.26742C214.391 3.00742 214.441 2.76242 214.541 2.53242C214.641 2.30242 214.776 2.10242 214.946 1.93242C215.116 1.75242 215.311 1.61242 215.531 1.51242C215.751 1.40242 215.976 1.34742 216.206 1.34742C216.446 1.34742 216.676 1.39742 216.896 1.49742C217.116 1.59742 217.311 1.73742 217.481 1.91742C217.661 2.08742 217.801 2.29242 217.901 2.53242C218.001 2.76242 218.051 3.00742 218.051 3.26742ZM224.071 10.2574L222.556 22.7374L221.866 25.8424C221.696 26.5924 221.236 26.9674 220.486 26.9674H219.436L221.461 10.3024L219.961 10.1074C219.791 10.0574 219.656 9.98742 219.556 9.89742C219.456 9.80742 219.406 9.67742 219.406 9.50742L219.526 8.33742H221.701L221.881 6.86742C221.991 5.99742 222.206 5.22742 222.526 4.55742C222.856 3.87742 223.266 3.30742 223.756 2.84742C224.256 2.37742 224.821 2.02242 225.451 1.78242C226.091 1.54242 226.776 1.42242 227.506 1.42242C228.126 1.42242 228.691 1.52242 229.201 1.72242L228.946 3.10242C228.926 3.24242 228.856 3.33242 228.736 3.37242C228.626 3.40242 228.481 3.41742 228.301 3.41742C228.211 3.41742 228.111 3.41742 228.001 3.41742C227.901 3.40742 227.791 3.40242 227.671 3.40242C227.241 3.40242 226.841 3.46742 226.471 3.59742C226.111 3.71742 225.791 3.91742 225.511 4.19742C225.231 4.47742 224.996 4.84242 224.806 5.29242C224.616 5.74242 224.481 6.29242 224.401 6.94242L224.221 8.33742H228.016L227.761 10.2574H224.071ZM240.758 11.2924C240.758 11.9524 240.623 12.5624 240.353 13.1224C240.083 13.6724 239.588 14.1724 238.868 14.6224C238.148 15.0624 237.158 15.4474 235.898 15.7774C234.638 16.1074 233.018 16.3724 231.038 16.5724C231.028 16.6824 231.023 16.7924 231.023 16.9024C231.023 17.0024 231.023 17.1074 231.023 17.2174C231.023 18.5574 231.313 19.5824 231.893 20.2924C232.483 20.9924 233.368 21.3424 234.548 21.3424C235.028 21.3424 235.453 21.2924 235.823 21.1924C236.203 21.0924 236.538 20.9724 236.828 20.8324C237.128 20.6824 237.388 20.5224 237.608 20.3524C237.838 20.1724 238.048 20.0124 238.238 19.8724C238.428 19.7224 238.603 19.5974 238.763 19.4974C238.923 19.3974 239.083 19.3474 239.243 19.3474C239.423 19.3474 239.588 19.4324 239.738 19.6024L240.398 20.4274C239.888 20.9574 239.388 21.4124 238.898 21.7924C238.418 22.1624 237.923 22.4724 237.413 22.7224C236.903 22.9724 236.368 23.1524 235.808 23.2624C235.258 23.3824 234.663 23.4424 234.023 23.4424C233.153 23.4424 232.373 23.2974 231.683 23.0074C230.993 22.7174 230.408 22.3074 229.928 21.7774C229.448 21.2374 229.078 20.5874 228.818 19.8274C228.558 19.0674 228.428 18.2174 228.428 17.2774C228.428 16.4974 228.508 15.7224 228.668 14.9524C228.838 14.1724 229.078 13.4324 229.388 12.7324C229.708 12.0324 230.093 11.3824 230.543 10.7824C231.003 10.1824 231.523 9.66742 232.103 9.23742C232.693 8.79742 233.338 8.45242 234.038 8.20242C234.748 7.95242 235.508 7.82742 236.318 7.82742C237.088 7.82742 237.753 7.93742 238.313 8.15742C238.873 8.37742 239.333 8.65742 239.693 8.99742C240.053 9.33742 240.318 9.71242 240.488 10.1224C240.668 10.5324 240.758 10.9224 240.758 11.2924ZM236.168 9.74742C235.538 9.74742 234.958 9.87742 234.428 10.1374C233.898 10.3974 233.428 10.7574 233.018 11.2174C232.608 11.6674 232.258 12.2024 231.968 12.8224C231.678 13.4324 231.453 14.0924 231.293 14.8024C232.833 14.6124 234.068 14.3974 234.998 14.1574C235.928 13.9074 236.643 13.6424 237.143 13.3624C237.643 13.0724 237.973 12.7624 238.133 12.4324C238.293 12.1024 238.373 11.7574 238.373 11.3974C238.373 11.2174 238.333 11.0324 238.253 10.8424C238.173 10.6424 238.043 10.4624 237.863 10.3024C237.693 10.1424 237.468 10.0124 237.188 9.91242C236.908 9.80242 236.568 9.74742 236.168 9.74742ZM261.062 5.06742C260.952 5.20742 260.847 5.31742 260.747 5.39742C260.647 5.46742 260.527 5.50242 260.387 5.50242C260.217 5.50242 260.037 5.41742 259.847 5.24742C259.657 5.06742 259.412 4.87742 259.112 4.67742C258.822 4.46742 258.467 4.27742 258.047 4.10742C257.627 3.92742 257.102 3.83742 256.472 3.83742C255.832 3.83742 255.262 3.93742 254.762 4.13742C254.262 4.33742 253.837 4.61242 253.487 4.96242C253.147 5.30242 252.887 5.70242 252.707 6.16242C252.527 6.62242 252.437 7.11742 252.437 7.64742C252.437 8.16742 252.557 8.60742 252.797 8.96742C253.037 9.31742 253.352 9.62242 253.742 9.88242C254.132 10.1324 254.577 10.3574 255.077 10.5574C255.587 10.7474 256.102 10.9474 256.622 11.1574C257.142 11.3574 257.652 11.5824 258.152 11.8324C258.662 12.0824 259.112 12.3924 259.502 12.7624C259.892 13.1324 260.207 13.5774 260.447 14.0974C260.687 14.6174 260.807 15.2474 260.807 15.9874C260.807 17.0074 260.632 17.9724 260.282 18.8824C259.932 19.7824 259.427 20.5724 258.767 21.2524C258.117 21.9324 257.327 22.4724 256.397 22.8724C255.467 23.2724 254.422 23.4724 253.262 23.4724C251.982 23.4724 250.837 23.2224 249.827 22.7224C248.827 22.2124 248.002 21.5274 247.352 20.6674L248.342 19.3324C248.422 19.2224 248.522 19.1324 248.642 19.0624C248.762 18.9924 248.892 18.9574 249.032 18.9574C249.222 18.9574 249.427 19.0724 249.647 19.3024C249.867 19.5224 250.147 19.7724 250.487 20.0524C250.827 20.3224 251.247 20.5724 251.747 20.8024C252.247 21.0224 252.872 21.1324 253.622 21.1324C254.312 21.1324 254.932 21.0224 255.482 20.8024C256.042 20.5824 256.512 20.2774 256.892 19.8874C257.282 19.4974 257.582 19.0324 257.792 18.4924C258.002 17.9424 258.107 17.3374 258.107 16.6774C258.107 16.1274 257.987 15.6724 257.747 15.3124C257.507 14.9424 257.192 14.6324 256.802 14.3824C256.412 14.1324 255.967 13.9174 255.467 13.7374C254.977 13.5474 254.467 13.3574 253.937 13.1674C253.417 12.9774 252.907 12.7624 252.407 12.5224C251.917 12.2824 251.477 11.9774 251.087 11.6074C250.697 11.2374 250.382 10.7824 250.142 10.2424C249.902 9.70242 249.782 9.03742 249.782 8.24742C249.782 7.36742 249.942 6.52242 250.262 5.71242C250.582 4.90242 251.042 4.18742 251.642 3.56742C252.242 2.94742 252.972 2.45242 253.832 2.08242C254.692 1.71242 255.662 1.52742 256.742 1.52742C257.842 1.52742 258.832 1.73742 259.712 2.15742C260.592 2.57742 261.317 3.15242 261.887 3.88242L261.062 5.06742ZM267.13 8.03742L265.99 17.6974C265.97 17.8974 265.95 18.0874 265.93 18.2674C265.92 18.4474 265.915 18.6224 265.915 18.7924C265.915 19.6124 266.065 20.2224 266.365 20.6224C266.675 21.0224 267.16 21.2224 267.82 21.2224C268.28 21.2224 268.75 21.0974 269.23 20.8474C269.72 20.5974 270.19 20.2424 270.64 19.7824C271.1 19.3224 271.525 18.7674 271.915 18.1174C272.305 17.4674 272.645 16.7424 272.935 15.9424L273.88 8.03742H276.535L274.705 23.2324H273.385C273.075 23.2324 272.835 23.1624 272.665 23.0224C272.495 22.8824 272.41 22.6674 272.41 22.3774C272.41 22.3674 272.415 22.2774 272.425 22.1074C272.435 21.9374 272.445 21.7524 272.455 21.5524C272.475 21.3524 272.49 21.1674 272.5 20.9974C272.52 20.8274 272.53 20.7374 272.53 20.7274L272.635 19.5124C271.825 20.8024 270.92 21.7824 269.92 22.4524C268.92 23.1124 267.89 23.4424 266.83 23.4424C265.7 23.4424 264.82 23.0574 264.19 22.2874C263.57 21.5174 263.26 20.4124 263.26 18.9724C263.26 18.7724 263.265 18.5674 263.275 18.3574C263.285 18.1474 263.305 17.9274 263.335 17.6974L264.475 8.03742H267.13ZM278.002 28.3774L280.477 8.02242H281.812C282.412 8.02242 282.712 8.32242 282.712 8.92242L282.457 12.1624C282.837 11.5024 283.252 10.9074 283.702 10.3774C284.152 9.83742 284.622 9.37742 285.112 8.99742C285.612 8.61742 286.132 8.32742 286.672 8.12742C287.212 7.91742 287.762 7.81242 288.322 7.81242C289.612 7.81242 290.617 8.28242 291.337 9.22242C292.057 10.1624 292.417 11.5374 292.417 13.3474C292.417 14.1674 292.332 14.9874 292.162 15.8074C291.992 16.6274 291.747 17.4124 291.427 18.1624C291.117 18.9024 290.737 19.5974 290.287 20.2474C289.847 20.8874 289.352 21.4474 288.802 21.9274C288.262 22.3974 287.672 22.7674 287.032 23.0374C286.392 23.3074 285.722 23.4424 285.022 23.4424C284.272 23.4424 283.587 23.2974 282.967 23.0074C282.347 22.7074 281.827 22.2824 281.407 21.7324L280.597 28.3774H278.002ZM287.317 9.95742C286.837 9.95742 286.347 10.1074 285.847 10.4074C285.357 10.7074 284.882 11.1274 284.422 11.6674C283.962 12.2074 283.532 12.8474 283.132 13.5874C282.742 14.3274 282.402 15.1324 282.112 16.0024L281.632 19.8724C282.012 20.4224 282.467 20.8124 282.997 21.0424C283.537 21.2624 284.082 21.3724 284.632 21.3724C285.152 21.3724 285.642 21.2624 286.102 21.0424C286.562 20.8224 286.982 20.5274 287.362 20.1574C287.742 19.7774 288.082 19.3374 288.382 18.8374C288.682 18.3274 288.932 17.7874 289.132 17.2174C289.342 16.6374 289.502 16.0424 289.612 15.4324C289.722 14.8124 289.777 14.2024 289.777 13.6024C289.777 12.4124 289.562 11.5074 289.132 10.8874C288.702 10.2674 288.097 9.95742 287.317 9.95742ZM293.529 28.3774L296.004 8.02242H297.339C297.939 8.02242 298.239 8.32242 298.239 8.92242L297.984 12.1624C298.364 11.5024 298.779 10.9074 299.229 10.3774C299.679 9.83742 300.149 9.37742 300.639 8.99742C301.139 8.61742 301.659 8.32742 302.199 8.12742C302.739 7.91742 303.289 7.81242 303.849 7.81242C305.139 7.81242 306.144 8.28242 306.864 9.22242C307.584 10.1624 307.944 11.5374 307.944 13.3474C307.944 14.1674 307.859 14.9874 307.689 15.8074C307.519 16.6274 307.274 17.4124 306.954 18.1624C306.644 18.9024 306.264 19.5974 305.814 20.2474C305.374 20.8874 304.879 21.4474 304.329 21.9274C303.789 22.3974 303.199 22.7674 302.559 23.0374C301.919 23.3074 301.249 23.4424 300.549 23.4424C299.799 23.4424 299.114 23.2974 298.494 23.0074C297.874 22.7074 297.354 22.2824 296.934 21.7324L296.124 28.3774H293.529ZM302.844 9.95742C302.364 9.95742 301.874 10.1074 301.374 10.4074C300.884 10.7074 300.409 11.1274 299.949 11.6674C299.489 12.2074 299.059 12.8474 298.659 13.5874C298.269 14.3274 297.929 15.1324 297.639 16.0024L297.159 19.8724C297.539 20.4224 297.994 20.8124 298.524 21.0424C299.064 21.2624 299.609 21.3724 300.159 21.3724C300.679 21.3724 301.169 21.2624 301.629 21.0424C302.089 20.8224 302.509 20.5274 302.889 20.1574C303.269 19.7774 303.609 19.3374 303.909 18.8374C304.209 18.3274 304.459 17.7874 304.659 17.2174C304.869 16.6374 305.029 16.0424 305.139 15.4324C305.249 14.8124 305.304 14.2024 305.304 13.6024C305.304 12.4124 305.089 11.5074 304.659 10.8874C304.229 10.2674 303.624 9.95742 302.844 9.95742ZM315.357 21.3574C316.087 21.3574 316.752 21.1574 317.352 20.7574C317.952 20.3574 318.462 19.8274 318.882 19.1674C319.302 18.4974 319.627 17.7274 319.857 16.8574C320.087 15.9874 320.202 15.0774 320.202 14.1274C320.202 12.7274 319.927 11.6724 319.377 10.9624C318.827 10.2524 318.032 9.89742 316.992 9.89742C316.252 9.89742 315.582 10.0974 314.982 10.4974C314.392 10.8874 313.887 11.4174 313.467 12.0874C313.047 12.7474 312.722 13.5124 312.492 14.3824C312.262 15.2524 312.147 16.1624 312.147 17.1124C312.147 18.5124 312.417 19.5724 312.957 20.2924C313.507 21.0024 314.307 21.3574 315.357 21.3574ZM315.117 23.4424C314.287 23.4424 313.527 23.3024 312.837 23.0224C312.147 22.7324 311.552 22.3174 311.052 21.7774C310.552 21.2374 310.162 20.5774 309.882 19.7974C309.602 19.0174 309.462 18.1274 309.462 17.1274C309.462 15.8474 309.662 14.6424 310.062 13.5124C310.462 12.3824 311.007 11.3924 311.697 10.5424C312.397 9.69242 313.217 9.02242 314.157 8.53242C315.107 8.04242 316.132 7.79742 317.232 7.79742C318.062 7.79742 318.822 7.94242 319.512 8.23242C320.202 8.51242 320.797 8.92242 321.297 9.46242C321.797 10.0024 322.187 10.6674 322.467 11.4574C322.747 12.2374 322.887 13.1224 322.887 14.1124C322.887 15.3824 322.687 16.5824 322.287 17.7124C321.887 18.8424 321.337 19.8324 320.637 20.6824C319.947 21.5324 319.127 22.2074 318.177 22.7074C317.227 23.1974 316.207 23.4424 315.117 23.4424ZM324.79 23.2324L326.62 8.02242H327.955C328.235 8.02242 328.455 8.08742 328.615 8.21742C328.775 8.34742 328.855 8.54742 328.855 8.81742C328.855 8.85742 328.85 8.91742 328.84 8.99742C328.84 9.06742 328.835 9.14242 328.825 9.22242C328.825 9.30242 328.82 9.37242 328.81 9.43242C328.81 9.49242 328.81 9.52742 328.81 9.53742L328.6 12.2974C329.25 10.8974 329.975 9.81742 330.775 9.05742C331.585 8.29742 332.435 7.91742 333.325 7.91742C333.745 7.91742 334.165 8.00742 334.585 8.18742L334.105 10.7524C333.635 10.5624 333.18 10.4674 332.74 10.4674C331.77 10.4674 330.905 10.9424 330.145 11.8924C329.385 12.8324 328.75 14.2624 328.24 16.1824L327.4 23.2324H324.79ZM336.627 20.3674C336.627 20.3074 336.627 20.2324 336.627 20.1424C336.637 20.0424 336.647 19.9024 336.657 19.7224C336.677 19.5424 336.702 19.3074 336.732 19.0174C336.762 18.7274 336.807 18.3474 336.867 17.8774L337.812 10.2724H336.117C335.987 10.2724 335.877 10.2374 335.787 10.1674C335.707 10.0874 335.667 9.96742 335.667 9.80742C335.667 9.77742 335.672 9.71742 335.682 9.62742C335.692 9.53742 335.702 9.43742 335.712 9.32742C335.732 9.20742 335.747 9.08742 335.757 8.96742C335.777 8.84742 335.792 8.73242 335.802 8.62242L338.142 8.30742L339.267 3.61242C339.307 3.46242 339.382 3.34242 339.492 3.25242C339.602 3.15242 339.737 3.10242 339.897 3.10242H341.307L340.647 8.33742H344.637L344.412 10.2724H340.407L339.492 17.7424C339.442 18.1524 339.402 18.4824 339.372 18.7324C339.352 18.9824 339.332 19.1824 339.312 19.3324C339.302 19.4824 339.292 19.5874 339.282 19.6474C339.282 19.7074 339.282 19.7524 339.282 19.7824C339.282 20.2924 339.397 20.6724 339.627 20.9224C339.867 21.1624 340.192 21.2824 340.602 21.2824C340.862 21.2824 341.092 21.2474 341.292 21.1774C341.492 21.0974 341.662 21.0124 341.802 20.9224C341.952 20.8324 342.077 20.7524 342.177 20.6824C342.277 20.6024 342.367 20.5624 342.447 20.5624C342.527 20.5624 342.587 20.5824 342.627 20.6224C342.677 20.6624 342.727 20.7274 342.777 20.8174L343.332 22.0924C342.852 22.5224 342.297 22.8624 341.667 23.1124C341.047 23.3524 340.422 23.4724 339.792 23.4724C338.822 23.4724 338.057 23.2074 337.497 22.6774C336.937 22.1474 336.647 21.3774 336.627 20.3674ZM351.037 6.72542C351.037 5.80742 351.211 4.94642 351.559 4.14242C351.907 3.33242 352.381 2.62742 352.981 2.02742C353.581 1.42142 354.283 0.944421 355.087 0.596421C355.891 0.248422 356.752 0.0744218 357.67 0.0744218C358.282 0.0744218 358.87 0.155422 359.434 0.317421C360.004 0.473421 360.535 0.695421 361.027 0.983421C361.519 1.27142 361.966 1.61942 362.368 2.02742C362.776 2.42942 363.124 2.87642 363.412 3.36842C363.7 3.86042 363.922 4.39142 364.078 4.96142C364.24 5.52542 364.321 6.11342 364.321 6.72542C364.321 7.33142 364.24 7.91942 364.078 8.48942C363.922 9.05342 363.7 9.58142 363.412 10.0734C363.124 10.5594 362.776 11.0064 362.368 11.4144C361.966 11.8164 361.519 12.1614 361.027 12.4494C360.535 12.7374 360.004 12.9624 359.434 13.1244C358.87 13.2804 358.282 13.3584 357.67 13.3584C357.058 13.3584 356.47 13.2804 355.906 13.1244C355.342 12.9624 354.814 12.7374 354.322 12.4494C353.83 12.1614 353.383 11.8164 352.981 11.4144C352.579 11.0064 352.234 10.5594 351.946 10.0734C351.658 9.58142 351.433 9.05342 351.271 8.48942C351.115 7.92542 351.037 7.33742 351.037 6.72542ZM352.243 6.72542C352.243 7.50542 352.381 8.23442 352.657 8.91242C352.939 9.59042 353.323 10.1814 353.809 10.6854C354.301 11.1834 354.877 11.5764 355.537 11.8644C356.197 12.1524 356.908 12.2964 357.67 12.2964C358.18 12.2964 358.669 12.2304 359.137 12.0984C359.605 11.9664 360.04 11.7804 360.442 11.5404C360.85 11.3004 361.219 11.0124 361.549 10.6764C361.885 10.3404 362.17 9.96542 362.404 9.55142C362.638 9.13742 362.818 8.69342 362.944 8.21942C363.076 7.74542 363.142 7.24742 363.142 6.72542C363.142 6.20342 363.076 5.70242 362.944 5.22242C362.818 4.74242 362.638 4.29542 362.404 3.88142C362.17 3.46142 361.885 3.08342 361.549 2.74742C361.219 2.40542 360.85 2.11442 360.442 1.87442C360.04 1.62842 359.605 1.43942 359.137 1.30742C358.669 1.17542 358.18 1.10942 357.67 1.10942C357.16 1.10942 356.671 1.17542 356.203 1.30742C355.741 1.43942 355.309 1.62842 354.907 1.87442C354.505 2.11442 354.139 2.40542 353.809 2.74742C353.485 3.08342 353.206 3.46142 352.972 3.88142C352.738 4.29542 352.558 4.74242 352.432 5.22242C352.306 5.70242 352.243 6.20342 352.243 6.72542ZM356.662 7.81442V10.7394H354.736V2.66642H357.625C358.747 2.66642 359.569 2.86742 360.091 3.26942C360.613 3.67142 360.874 4.24742 360.874 4.99742C360.874 5.53142 360.736 5.99942 360.46 6.40142C360.184 6.79742 359.755 7.08542 359.173 7.26542C359.311 7.34342 359.425 7.44242 359.515 7.56242C359.605 7.68242 359.695 7.82042 359.785 7.97642L361.414 10.7394H359.56C359.296 10.7394 359.11 10.6404 359.002 10.4424L357.697 8.07542C357.649 7.98542 357.586 7.91942 357.508 7.87742C357.43 7.83542 357.313 7.81442 357.157 7.81442H356.662ZM356.662 6.43742H357.463C357.775 6.43742 358.027 6.41342 358.219 6.36542C358.417 6.31142 358.57 6.23342 358.678 6.13142C358.792 6.02942 358.87 5.90342 358.912 5.75342C358.954 5.60342 358.975 5.43242 358.975 5.24042C358.975 5.05442 358.957 4.89242 358.921 4.75442C358.885 4.61042 358.816 4.49342 358.714 4.40342C358.618 4.30742 358.48 4.23842 358.3 4.19642C358.126 4.14842 357.901 4.12442 357.625 4.12442H356.662V6.43742Z" fill="#1F1F1F"/>
</svg>
