<svg width="153" height="18" viewBox="0 0 153 18" fill="none" xmlns="http://www.w3.org/2000/svg">
<path d="M1.983 9.176V14H0.246V1.103H4.053C4.869 1.103 5.577 1.199 6.177 1.391C6.783 1.577 7.284 1.844 7.68 2.192C8.076 2.54 8.37 2.96 8.562 3.452C8.76 3.944 8.859 4.493 8.859 5.099C8.859 5.699 8.754 6.248 8.544 6.746C8.334 7.244 8.025 7.673 7.617 8.033C7.215 8.393 6.714 8.675 6.114 8.879C5.514 9.077 4.827 9.176 4.053 9.176H1.983ZM1.983 7.79H4.053C4.551 7.79 4.989 7.724 5.367 7.592C5.751 7.46 6.072 7.277 6.33 7.043C6.588 6.803 6.783 6.518 6.915 6.188C7.047 5.858 7.113 5.495 7.113 5.099C7.113 4.277 6.858 3.635 6.348 3.173C5.844 2.711 5.079 2.48 4.053 2.48H1.983V7.79ZM14.2442 4.739C14.9102 4.739 15.5102 4.85 16.0442 5.072C16.5842 5.294 17.0402 5.609 17.4122 6.017C17.7902 6.425 18.0782 6.92 18.2762 7.502C18.4802 8.078 18.5822 8.723 18.5822 9.437C18.5822 10.157 18.4802 10.805 18.2762 11.381C18.0782 11.957 17.7902 12.449 17.4122 12.857C17.0402 13.265 16.5842 13.58 16.0442 13.802C15.5102 14.018 14.9102 14.126 14.2442 14.126C13.5782 14.126 12.9752 14.018 12.4352 13.802C11.9012 13.58 11.4452 13.265 11.0672 12.857C10.6892 12.449 10.3982 11.957 10.1942 11.381C9.99023 10.805 9.88823 10.157 9.88823 9.437C9.88823 8.723 9.99023 8.078 10.1942 7.502C10.3982 6.92 10.6892 6.425 11.0672 6.017C11.4452 5.609 11.9012 5.294 12.4352 5.072C12.9752 4.85 13.5782 4.739 14.2442 4.739ZM14.2442 12.875C15.1442 12.875 15.8162 12.575 16.2602 11.975C16.7042 11.369 16.9262 10.526 16.9262 9.446C16.9262 8.36 16.7042 7.514 16.2602 6.908C15.8162 6.302 15.1442 5.999 14.2442 5.999C13.7882 5.999 13.3922 6.077 13.0562 6.233C12.7202 6.389 12.4382 6.614 12.2102 6.908C11.9882 7.202 11.8202 7.565 11.7062 7.997C11.5982 8.423 11.5442 8.906 11.5442 9.446C11.5442 9.986 11.5982 10.469 11.7062 10.895C11.8202 11.321 11.9882 11.681 12.2102 11.975C12.4382 12.263 12.7202 12.485 13.0562 12.641C13.3922 12.797 13.7882 12.875 14.2442 12.875ZM19.3682 4.883H20.6282C20.7602 4.883 20.8682 4.916 20.9522 4.982C21.0362 5.048 21.0932 5.126 21.1232 5.216L22.8692 11.084C22.9172 11.3 22.9622 11.51 23.0042 11.714C23.0462 11.912 23.0822 12.113 23.1122 12.317C23.1602 12.113 23.2142 11.912 23.2742 11.714C23.3342 11.51 23.3972 11.3 23.4632 11.084L25.3892 5.18C25.4192 5.09 25.4702 5.015 25.5422 4.955C25.6202 4.895 25.7162 4.865 25.8302 4.865H26.5232C26.6432 4.865 26.7422 4.895 26.8202 4.955C26.8982 5.015 26.9522 5.09 26.9822 5.18L28.8632 11.084C28.9292 11.294 28.9862 11.501 29.0342 11.705C29.0882 11.909 29.1392 12.11 29.1872 12.308C29.2172 12.11 29.2562 11.903 29.3042 11.687C29.3522 11.471 29.4032 11.27 29.4572 11.084L31.2392 5.216C31.2692 5.12 31.3262 5.042 31.4102 4.982C31.4942 4.916 31.5932 4.883 31.7072 4.883H32.9132L29.9612 14H28.6922C28.5362 14 28.4282 13.898 28.3682 13.694L26.3522 7.511C26.3042 7.373 26.2652 7.235 26.2352 7.097C26.2052 6.953 26.1752 6.812 26.1452 6.674C26.1152 6.812 26.0852 6.953 26.0552 7.097C26.0252 7.241 25.9862 7.382 25.9382 7.52L23.8952 13.694C23.8292 13.898 23.7062 14 23.5262 14H22.3202L19.3682 4.883ZM37.9464 4.739C38.4924 4.739 38.9964 4.832 39.4584 5.018C39.9204 5.198 40.3194 5.462 40.6554 5.81C40.9914 6.152 41.2524 6.578 41.4384 7.088C41.6304 7.592 41.7264 8.168 41.7264 8.816C41.7264 9.068 41.6994 9.236 41.6454 9.32C41.5914 9.404 41.4894 9.446 41.3394 9.446H35.2734C35.2854 10.022 35.3634 10.523 35.5074 10.949C35.6514 11.375 35.8494 11.732 36.1014 12.02C36.3534 12.302 36.6534 12.515 37.0014 12.659C37.3494 12.797 37.7394 12.866 38.1714 12.866C38.5734 12.866 38.9184 12.821 39.2064 12.731C39.5004 12.635 39.7524 12.533 39.9624 12.425C40.1724 12.317 40.3464 12.218 40.4844 12.128C40.6284 12.032 40.7514 11.984 40.8534 11.984C40.9854 11.984 41.0874 12.035 41.1594 12.137L41.6094 12.722C41.4114 12.962 41.1744 13.172 40.8984 13.352C40.6224 13.526 40.3254 13.67 40.0074 13.784C39.6954 13.898 39.3714 13.982 39.0354 14.036C38.6994 14.096 38.3664 14.126 38.0364 14.126C37.4064 14.126 36.8244 14.021 36.2904 13.811C35.7624 13.595 35.3034 13.283 34.9134 12.875C34.5294 12.461 34.2294 11.951 34.0134 11.345C33.7974 10.739 33.6894 10.043 33.6894 9.257C33.6894 8.621 33.7854 8.027 33.9774 7.475C34.1754 6.923 34.4574 6.446 34.8234 6.044C35.1894 5.636 35.6364 5.318 36.1644 5.09C36.6924 4.856 37.2864 4.739 37.9464 4.739ZM37.9824 5.918C37.2084 5.918 36.5994 6.143 36.1554 6.593C35.7114 7.037 35.4354 7.655 35.3274 8.447H40.2864C40.2864 8.075 40.2354 7.736 40.1334 7.43C40.0314 7.118 39.8814 6.851 39.6834 6.629C39.4854 6.401 39.2424 6.227 38.9544 6.107C38.6724 5.981 38.3484 5.918 37.9824 5.918ZM43.7769 14V4.883H44.6949C44.8689 4.883 44.9889 4.916 45.0549 4.982C45.1209 5.048 45.1659 5.162 45.1899 5.324L45.2979 6.746C45.6099 6.11 45.9939 5.615 46.4499 5.261C46.9119 4.901 47.4519 4.721 48.0699 4.721C48.3219 4.721 48.5499 4.751 48.7539 4.811C48.9579 4.865 49.1469 4.943 49.3209 5.045L49.1139 6.242C49.0719 6.392 48.9789 6.467 48.8349 6.467C48.7509 6.467 48.6219 6.44 48.4479 6.386C48.2739 6.326 48.0309 6.296 47.7189 6.296C47.1609 6.296 46.6929 6.458 46.3149 6.782C45.9429 7.106 45.6309 7.577 45.3789 8.195V14H43.7769ZM54.6457 4.739C55.1917 4.739 55.6957 4.832 56.1577 5.018C56.6197 5.198 57.0187 5.462 57.3547 5.81C57.6907 6.152 57.9517 6.578 58.1377 7.088C58.3297 7.592 58.4257 8.168 58.4257 8.816C58.4257 9.068 58.3987 9.236 58.3447 9.32C58.2907 9.404 58.1887 9.446 58.0387 9.446H51.9727C51.9847 10.022 52.0627 10.523 52.2067 10.949C52.3507 11.375 52.5487 11.732 52.8007 12.02C53.0527 12.302 53.3527 12.515 53.7007 12.659C54.0487 12.797 54.4387 12.866 54.8707 12.866C55.2727 12.866 55.6177 12.821 55.9057 12.731C56.1997 12.635 56.4517 12.533 56.6617 12.425C56.8717 12.317 57.0457 12.218 57.1837 12.128C57.3277 12.032 57.4507 11.984 57.5527 11.984C57.6847 11.984 57.7867 12.035 57.8587 12.137L58.3087 12.722C58.1107 12.962 57.8737 13.172 57.5977 13.352C57.3217 13.526 57.0247 13.67 56.7067 13.784C56.3947 13.898 56.0707 13.982 55.7347 14.036C55.3987 14.096 55.0657 14.126 54.7357 14.126C54.1057 14.126 53.5237 14.021 52.9897 13.811C52.4617 13.595 52.0027 13.283 51.6127 12.875C51.2287 12.461 50.9287 11.951 50.7127 11.345C50.4967 10.739 50.3887 10.043 50.3887 9.257C50.3887 8.621 50.4847 8.027 50.6767 7.475C50.8747 6.923 51.1567 6.446 51.5227 6.044C51.8887 5.636 52.3357 5.318 52.8637 5.09C53.3917 4.856 53.9857 4.739 54.6457 4.739ZM54.6817 5.918C53.9077 5.918 53.2987 6.143 52.8547 6.593C52.4107 7.037 52.1347 7.655 52.0267 8.447H56.9857C56.9857 8.075 56.9347 7.736 56.8327 7.43C56.7307 7.118 56.5807 6.851 56.3827 6.629C56.1847 6.401 55.9417 6.227 55.6537 6.107C55.3717 5.981 55.0477 5.918 54.6817 5.918ZM66.8931 14C66.6651 14 66.5211 13.889 66.4611 13.667L66.3171 12.56C65.9271 13.034 65.4801 13.415 64.9761 13.703C64.4781 13.985 63.9051 14.126 63.2571 14.126C62.7351 14.126 62.2611 14.027 61.8351 13.829C61.4091 13.625 61.0461 13.328 60.7461 12.938C60.4461 12.548 60.2151 12.062 60.0531 11.48C59.8911 10.898 59.8101 10.229 59.8101 9.473C59.8101 8.801 59.9001 8.177 60.0801 7.601C60.2601 7.019 60.5181 6.515 60.8541 6.089C61.1961 5.663 61.6101 5.33 62.0961 5.09C62.5821 4.844 63.1341 4.721 63.7521 4.721C64.3101 4.721 64.7871 4.817 65.1831 5.009C65.5791 5.195 65.9331 5.459 66.2451 5.801V0.743H67.8471V14H66.8931ZM63.7881 12.83C64.3101 12.83 64.7661 12.71 65.1561 12.47C65.5521 12.23 65.9151 11.891 66.2451 11.453V7.043C65.9511 6.647 65.6271 6.371 65.2731 6.215C64.9251 6.053 64.5381 5.972 64.1121 5.972C63.2601 5.972 62.6061 6.275 62.1501 6.881C61.6941 7.487 61.4661 8.351 61.4661 9.473C61.4661 10.067 61.5171 10.577 61.6191 11.003C61.7211 11.423 61.8711 11.771 62.0691 12.047C62.2671 12.317 62.5101 12.515 62.7981 12.641C63.0861 12.767 63.4161 12.83 63.7881 12.83ZM74.0653 14V0.743H75.6763V6.197C76.0543 5.759 76.4863 5.408 76.9723 5.144C77.4643 4.874 78.0253 4.739 78.6553 4.739C79.1833 4.739 79.6603 4.838 80.0863 5.036C80.5123 5.234 80.8753 5.531 81.1753 5.927C81.4753 6.317 81.7063 6.803 81.8683 7.385C82.0303 7.961 82.1113 8.627 82.1113 9.383C82.1113 10.055 82.0213 10.682 81.8413 11.264C81.6613 11.84 81.4003 12.341 81.0583 12.767C80.7223 13.187 80.3083 13.52 79.8163 13.766C79.3303 14.006 78.7813 14.126 78.1693 14.126C77.5813 14.126 77.0803 14.012 76.6663 13.784C76.2583 13.556 75.9013 13.238 75.5953 12.83L75.5143 13.658C75.4663 13.886 75.3283 14 75.1003 14H74.0653ZM78.1333 6.017C77.6113 6.017 77.1523 6.137 76.7563 6.377C76.3663 6.617 76.0063 6.956 75.6763 7.394V11.804C75.9643 12.2 76.2823 12.479 76.6303 12.641C76.9843 12.803 77.3773 12.884 77.8093 12.884C78.6613 12.884 79.3153 12.581 79.7713 11.975C80.2273 11.369 80.4553 10.505 80.4553 9.383C80.4553 8.789 80.4013 8.279 80.2933 7.853C80.1913 7.427 80.0413 7.079 79.8433 6.809C79.6453 6.533 79.4023 6.332 79.1143 6.206C78.8263 6.08 78.4993 6.017 78.1333 6.017ZM86.5104 16.691C86.4564 16.811 86.3874 16.907 86.3034 16.979C86.2254 17.051 86.1024 17.087 85.9344 17.087H84.7464L86.4114 13.469L82.6494 4.883H84.0354C84.1734 4.883 84.2814 4.919 84.3594 4.991C84.4374 5.057 84.4944 5.132 84.5304 5.216L86.9694 10.958C87.0234 11.09 87.0684 11.222 87.1044 11.354C87.1464 11.486 87.1824 11.621 87.2124 11.759C87.2544 11.621 87.2964 11.486 87.3384 11.354C87.3804 11.222 87.4284 11.087 87.4824 10.949L89.8494 5.216C89.8854 5.12 89.9454 5.042 90.0294 4.982C90.1194 4.916 90.2154 4.883 90.3174 4.883H91.5954L86.5104 16.691ZM98.5268 12.533H104.107V14H96.7808V1.103H98.5268V12.533ZM112.471 14H111.76C111.604 14 111.478 13.976 111.382 13.928C111.286 13.88 111.223 13.778 111.193 13.622L111.013 12.776C110.773 12.992 110.539 13.187 110.311 13.361C110.083 13.529 109.843 13.673 109.591 13.793C109.339 13.907 109.069 13.994 108.781 14.054C108.499 14.114 108.184 14.144 107.836 14.144C107.482 14.144 107.149 14.096 106.837 14C106.531 13.898 106.264 13.748 106.036 13.55C105.808 13.352 105.625 13.103 105.487 12.803C105.355 12.497 105.289 12.137 105.289 11.723C105.289 11.363 105.388 11.018 105.586 10.688C105.784 10.352 106.102 10.055 106.54 9.797C106.984 9.539 107.563 9.329 108.277 9.167C108.991 8.999 109.864 8.903 110.896 8.879V8.168C110.896 7.46 110.743 6.926 110.437 6.566C110.137 6.2 109.69 6.017 109.096 6.017C108.706 6.017 108.376 6.068 108.106 6.17C107.842 6.266 107.611 6.377 107.413 6.503C107.221 6.623 107.053 6.734 106.909 6.836C106.771 6.932 106.633 6.98 106.495 6.98C106.387 6.98 106.291 6.953 106.207 6.899C106.129 6.839 106.066 6.767 106.018 6.683L105.73 6.17C106.234 5.684 106.777 5.321 107.359 5.081C107.941 4.841 108.586 4.721 109.294 4.721C109.804 4.721 110.257 4.805 110.653 4.973C111.049 5.141 111.382 5.375 111.652 5.675C111.922 5.975 112.126 6.338 112.264 6.764C112.402 7.19 112.471 7.658 112.471 8.168V14ZM108.313 13.019C108.595 13.019 108.853 12.992 109.087 12.938C109.321 12.878 109.54 12.797 109.744 12.695C109.954 12.587 110.152 12.458 110.338 12.308C110.53 12.158 110.716 11.987 110.896 11.795V9.896C110.158 9.92 109.531 9.98 109.015 10.076C108.499 10.166 108.079 10.286 107.755 10.436C107.431 10.586 107.194 10.763 107.044 10.967C106.9 11.171 106.828 11.399 106.828 11.651C106.828 11.891 106.867 12.098 106.945 12.272C107.023 12.446 107.128 12.59 107.26 12.704C107.392 12.812 107.548 12.893 107.728 12.947C107.908 12.995 108.103 13.019 108.313 13.019ZM118.507 4.739C119.053 4.739 119.557 4.832 120.019 5.018C120.481 5.198 120.88 5.462 121.216 5.81C121.552 6.152 121.813 6.578 121.999 7.088C122.191 7.592 122.287 8.168 122.287 8.816C122.287 9.068 122.26 9.236 122.206 9.32C122.152 9.404 122.05 9.446 121.9 9.446H115.834C115.846 10.022 115.924 10.523 116.068 10.949C116.212 11.375 116.41 11.732 116.662 12.02C116.914 12.302 117.214 12.515 117.562 12.659C117.91 12.797 118.3 12.866 118.732 12.866C119.134 12.866 119.479 12.821 119.767 12.731C120.061 12.635 120.313 12.533 120.523 12.425C120.733 12.317 120.907 12.218 121.045 12.128C121.189 12.032 121.312 11.984 121.414 11.984C121.546 11.984 121.648 12.035 121.72 12.137L122.17 12.722C121.972 12.962 121.735 13.172 121.459 13.352C121.183 13.526 120.886 13.67 120.568 13.784C120.256 13.898 119.932 13.982 119.596 14.036C119.26 14.096 118.927 14.126 118.597 14.126C117.967 14.126 117.385 14.021 116.851 13.811C116.323 13.595 115.864 13.283 115.474 12.875C115.09 12.461 114.79 11.951 114.574 11.345C114.358 10.739 114.25 10.043 114.25 9.257C114.25 8.621 114.346 8.027 114.538 7.475C114.736 6.923 115.018 6.446 115.384 6.044C115.75 5.636 116.197 5.318 116.725 5.09C117.253 4.856 117.847 4.739 118.507 4.739ZM118.543 5.918C117.769 5.918 117.16 6.143 116.716 6.593C116.272 7.037 115.996 7.655 115.888 8.447H120.847C120.847 8.075 120.796 7.736 120.694 7.43C120.592 7.118 120.442 6.851 120.244 6.629C120.046 6.401 119.803 6.227 119.515 6.107C119.233 5.981 118.909 5.918 118.543 5.918ZM124.337 14V4.883H125.255C125.429 4.883 125.549 4.916 125.615 4.982C125.681 5.048 125.726 5.162 125.75 5.324L125.858 6.746C126.17 6.11 126.554 5.615 127.01 5.261C127.472 4.901 128.012 4.721 128.63 4.721C128.882 4.721 129.11 4.751 129.314 4.811C129.518 4.865 129.707 4.943 129.881 5.045L129.674 6.242C129.632 6.392 129.539 6.467 129.395 6.467C129.311 6.467 129.182 6.44 129.008 6.386C128.834 6.326 128.591 6.296 128.279 6.296C127.721 6.296 127.253 6.458 126.875 6.782C126.503 7.106 126.191 7.577 125.939 8.195V14H124.337ZM138.014 14C137.786 14 137.642 13.889 137.582 13.667L137.438 12.56C137.048 13.034 136.601 13.415 136.097 13.703C135.599 13.985 135.026 14.126 134.378 14.126C133.856 14.126 133.382 14.027 132.956 13.829C132.53 13.625 132.167 13.328 131.867 12.938C131.567 12.548 131.336 12.062 131.174 11.48C131.012 10.898 130.931 10.229 130.931 9.473C130.931 8.801 131.021 8.177 131.201 7.601C131.381 7.019 131.639 6.515 131.975 6.089C132.317 5.663 132.731 5.33 133.217 5.09C133.703 4.844 134.255 4.721 134.873 4.721C135.431 4.721 135.908 4.817 136.304 5.009C136.7 5.195 137.054 5.459 137.366 5.801V0.743H138.968V14H138.014ZM134.909 12.83C135.431 12.83 135.887 12.71 136.277 12.47C136.673 12.23 137.036 11.891 137.366 11.453V7.043C137.072 6.647 136.748 6.371 136.394 6.215C136.046 6.053 135.659 5.972 135.233 5.972C134.381 5.972 133.727 6.275 133.271 6.881C132.815 7.487 132.587 8.351 132.587 9.473C132.587 10.067 132.638 10.577 132.74 11.003C132.842 11.423 132.992 11.771 133.19 12.047C133.388 12.317 133.631 12.515 133.919 12.641C134.207 12.767 134.537 12.83 134.909 12.83ZM148.348 14H147.637C147.481 14 147.355 13.976 147.259 13.928C147.163 13.88 147.1 13.778 147.07 13.622L146.89 12.776C146.65 12.992 146.416 13.187 146.188 13.361C145.96 13.529 145.72 13.673 145.468 13.793C145.216 13.907 144.946 13.994 144.658 14.054C144.376 14.114 144.061 14.144 143.713 14.144C143.359 14.144 143.026 14.096 142.714 14C142.408 13.898 142.141 13.748 141.913 13.55C141.685 13.352 141.502 13.103 141.364 12.803C141.232 12.497 141.166 12.137 141.166 11.723C141.166 11.363 141.265 11.018 141.463 10.688C141.661 10.352 141.979 10.055 142.417 9.797C142.861 9.539 143.44 9.329 144.154 9.167C144.868 8.999 145.741 8.903 146.773 8.879V8.168C146.773 7.46 146.62 6.926 146.314 6.566C146.014 6.2 145.567 6.017 144.973 6.017C144.583 6.017 144.253 6.068 143.983 6.17C143.719 6.266 143.488 6.377 143.29 6.503C143.098 6.623 142.93 6.734 142.786 6.836C142.648 6.932 142.51 6.98 142.372 6.98C142.264 6.98 142.168 6.953 142.084 6.899C142.006 6.839 141.943 6.767 141.895 6.683L141.607 6.17C142.111 5.684 142.654 5.321 143.236 5.081C143.818 4.841 144.463 4.721 145.171 4.721C145.681 4.721 146.134 4.805 146.53 4.973C146.926 5.141 147.259 5.375 147.529 5.675C147.799 5.975 148.003 6.338 148.141 6.764C148.279 7.19 148.348 7.658 148.348 8.168V14ZM144.19 13.019C144.472 13.019 144.73 12.992 144.964 12.938C145.198 12.878 145.417 12.797 145.621 12.695C145.831 12.587 146.029 12.458 146.215 12.308C146.407 12.158 146.593 11.987 146.773 11.795V9.896C146.035 9.92 145.408 9.98 144.892 10.076C144.376 10.166 143.956 10.286 143.632 10.436C143.308 10.586 143.071 10.763 142.921 10.967C142.777 11.171 142.705 11.399 142.705 11.651C142.705 11.891 142.744 12.098 142.822 12.272C142.9 12.446 143.005 12.59 143.137 12.704C143.269 12.812 143.425 12.893 143.605 12.947C143.785 12.995 143.98 13.019 144.19 13.019ZM152.557 0.743V14H150.955V0.743H152.557Z" fill="#666666"/>
</svg>
