<svg width="17" height="17" viewBox="0 0 17 17" fill="none" xmlns="http://www.w3.org/2000/svg">
<path d="M7.85121 12.4312L4.49935 14.2957V3.43164C4.49935 3.06345 4.79782 2.76497 5.16602 2.76497H11.8327C12.2009 2.76497 12.4993 3.06345 12.4993 3.43164V14.2957L9.14749 12.4312C8.74447 12.207 8.25422 12.207 7.85121 12.4312ZM8.49935 13.5964L12.8419 16.012C13.2863 16.2591 13.8327 15.9378 13.8327 15.4294V3.43164C13.8327 2.32707 12.9373 1.43164 11.8327 1.43164H5.16602C4.06145 1.43164 3.16602 2.32707 3.16602 3.43164V15.4294C3.16602 15.9378 3.71239 16.2591 4.15675 16.012L8.49935 13.5964Z" fill="#666666"/>
</svg>
