<svg width="17" height="17" viewBox="0 0 17 17" fill="none" xmlns="http://www.w3.org/2000/svg">
<path d="M12.5783 16.1526C13.0226 16.3998 13.569 16.0785 13.569 15.57V3.57227C13.569 2.4677 12.6736 1.57227 11.569 1.57227H4.90234C3.79777 1.57227 2.90234 2.46769 2.90234 3.57226V15.57C2.90234 16.0785 3.44872 16.3998 3.89308 16.1526L8.23568 13.737L12.5783 16.1526ZM10.8456 6.7968L7.51717 10.1253L5.62612 8.23382C5.36579 7.97344 5.36584 7.55133 5.62621 7.29101C5.88659 7.03068 6.3087 7.03073 6.56902 7.2911L7.51727 8.23954L9.90282 5.85399C10.1632 5.59364 10.5853 5.59364 10.8456 5.85399C11.106 6.11434 11.106 6.53645 10.8456 6.7968Z" fill="#13772A"/>
</svg>
