<svg width="55" height="54" viewBox="0 0 55 54" fill="none" xmlns="http://www.w3.org/2000/svg">
<path d="M31.8002 19.2053C32.2396 18.766 32.2396 18.0537 31.8002 17.6144C31.3609 17.175 30.6486 17.175 30.2092 17.6144L27.0138 20.8098L25.7695 19.5652C25.3302 19.1258 24.6179 19.1257 24.1785 19.565C23.7391 20.0043 23.739 20.7166 24.1783 21.156L27.0137 23.9919L31.8002 19.2053Z" fill="#13772A"/>
<path d="M27.4837 30.3445C32.765 30.3445 37.0462 26.0632 37.0462 20.782C37.0462 15.5008 32.765 11.2195 27.4837 11.2195C22.2025 11.2195 17.9212 15.5008 17.9212 20.782C17.9212 26.0632 22.2025 30.3445 27.4837 30.3445ZM27.4837 28.0945C23.4452 28.0945 20.1712 24.8206 20.1712 20.782C20.1712 16.7434 23.4452 13.4695 27.4837 13.4695C31.5223 13.4695 34.7962 16.7434 34.7962 20.782C34.7962 24.8206 31.5223 28.0945 27.4837 28.0945Z" fill="#13772A"/>
<path d="M25.2913 4.45314L23.6191 6.25351C23.354 6.5389 22.9601 6.66687 22.5779 6.59179L20.1668 6.11817C18.2417 5.74001 16.4009 7.07741 16.1657 9.0252L15.871 11.4646C15.8243 11.8513 15.5809 12.1864 15.2276 12.3503L12.9986 13.3843C11.2188 14.21 10.5157 16.3739 11.4703 18.088L12.6658 20.2347C12.8553 20.575 12.8553 20.9891 12.6658 21.3294L11.4703 23.4761C10.5157 25.1902 11.2188 27.3542 12.9986 28.1798L15.2276 29.2139C15.5809 29.3778 15.8243 29.7128 15.871 30.0995L16.1657 32.5389C16.4009 34.4867 18.2417 35.8241 20.1668 35.446L22.5779 34.9723C22.9601 34.8973 23.354 35.0252 23.6191 35.3106L25.2913 37.111C26.6265 38.5485 28.9018 38.5485 30.237 37.111L31.9092 35.3106C32.1743 35.0252 32.5682 34.8973 32.9504 34.9723L35.3615 35.446C37.2866 35.8241 39.1274 34.4867 39.3626 32.5389L39.6573 30.0995C39.704 29.7128 39.9474 29.3778 40.3007 29.2139L42.5297 28.1798C44.3095 27.3542 45.0126 25.1902 44.058 23.4761L42.8625 21.3294C42.673 20.9891 42.673 20.575 42.8625 20.2347L44.058 18.088C45.0126 16.3739 44.3095 14.21 42.5297 13.3843L40.3007 12.3503C39.9474 12.1864 39.704 11.8513 39.6573 11.4646L39.3626 9.0252C39.1274 7.07741 37.2866 5.74001 35.3615 6.11817L32.9504 6.59179C32.5682 6.66687 32.1743 6.5389 31.9092 6.25351L30.237 4.45314C28.9018 3.01562 26.6265 3.01562 25.2913 4.45314ZM28.5884 5.98438L30.2607 7.78475C31.0559 8.64093 32.2375 9.02483 33.3841 8.7996L35.7952 8.32598C36.4369 8.19993 37.0505 8.64573 37.1289 9.29499L37.4235 11.7344C37.5636 12.8945 38.2939 13.8996 39.3539 14.3913L41.5829 15.4254C42.1761 15.7006 42.4105 16.4219 42.0923 16.9933L40.8968 19.14C40.3283 20.1609 40.3283 21.4032 40.8968 22.4241L42.0923 24.5709C42.4105 25.1422 42.1761 25.8635 41.5829 26.1387L39.3539 27.1728C38.2939 27.6645 37.5636 28.6696 37.4235 29.8297L37.1289 32.2691C37.0505 32.9184 36.4369 33.3642 35.7952 33.2382L33.3841 32.7645C32.2375 32.5393 31.0559 32.9232 30.2607 33.7794L28.5884 35.5798C28.1434 36.0589 27.3849 36.0589 26.9399 35.5798L25.2676 33.7794C24.4724 32.9232 23.2909 32.5393 22.1442 32.7645L19.7332 33.2382C19.0914 33.3642 18.4778 32.9184 18.3994 32.2691L18.1048 29.8297C17.9647 28.6696 17.2345 27.6645 16.1744 27.1728L13.9454 26.1387C13.3522 25.8635 13.1178 25.1422 13.436 24.5709L14.6315 22.4241C15.2 21.4032 15.2 20.1609 14.6315 19.14L13.436 16.9933C13.1178 16.4219 13.3522 15.7006 13.9454 15.4254L16.1744 14.3913C17.2345 13.8996 17.9647 12.8945 18.1048 11.7344L18.3994 9.29499C18.4778 8.64573 19.0914 8.19993 19.7332 8.32598L22.1442 8.7996C23.2909 9.02483 24.4724 8.64093 25.2676 7.78475L26.9399 5.98438C27.3849 5.50521 28.1434 5.50521 28.5884 5.98438Z" fill="#13772A"/>
<path d="M21.8587 39.3805C21.8587 38.7592 21.3551 38.2555 20.7337 38.2555C20.1124 38.2555 19.6087 38.7592 19.6087 39.3805V48.3706C19.6087 50.3751 22.0323 51.379 23.4497 49.9616L27.4837 45.9276L31.5177 49.9616C32.9352 51.379 35.3587 50.3751 35.3587 48.3706V39.3805C35.3587 38.7592 34.8551 38.2555 34.2337 38.2555C33.6124 38.2555 33.1087 38.7592 33.1087 39.3805V48.3706L29.0747 44.3366C28.196 43.4579 26.7714 43.4579 25.8927 44.3366L21.8587 48.3706V39.3805Z" fill="#13772A"/>
</svg>
