<svg width="25" height="24" viewBox="0 0 25 24" fill="none" xmlns="http://www.w3.org/2000/svg">
<path d="M19.2441 5.7107C18.8541 5.3207 18.2241 5.3207 17.8341 5.7107L12.9441 10.5907L8.05406 5.7007C7.66406 5.3107 7.03406 5.3107 6.64406 5.7007C6.25406 6.0907 6.25406 6.7207 6.64406 7.1107L11.5341 12.0007L6.64406 16.8907C6.25406 17.2807 6.25406 17.9107 6.64406 18.3007C7.03406 18.6907 7.66406 18.6907 8.05406 18.3007L12.9441 13.4107L17.8341 18.3007C18.2241 18.6907 18.8541 18.6907 19.2441 18.3007C19.6341 17.9107 19.6341 17.2807 19.2441 16.8907L14.3541 12.0007L19.2441 7.1107C19.6241 6.7307 19.6241 6.0907 19.2441 5.7107Z" fill="#2E7FA1"/>
</svg>
