<svg width="25" height="24" viewBox="0 0 25 24" fill="none" xmlns="http://www.w3.org/2000/svg">
<path d="M14.4453 7.5C14.4453 8.32843 13.7737 9 12.9453 9C12.1169 9 11.4453 8.32843 11.4453 7.5C11.4453 6.67157 12.1169 6 12.9453 6C13.7737 6 14.4453 6.67157 14.4453 7.5Z" fill="#215369"/>
<path d="M13.9453 11C13.9453 10.4477 13.4976 10 12.9453 10C12.393 10 11.9453 10.4477 11.9453 11V17C11.9453 17.5523 12.393 18 12.9453 18C13.4976 18 13.9453 17.5523 13.9453 17V11Z" fill="#215369"/>
<path d="M12.9453 23C19.0204 23 23.9453 18.0751 23.9453 12C23.9453 5.92487 19.0204 1 12.9453 1C6.87018 1 1.94531 5.92487 1.94531 12C1.94531 18.0751 6.87018 23 12.9453 23ZM12.9453 21C7.97475 21 3.94531 16.9706 3.94531 12C3.94531 7.02944 7.97475 3 12.9453 3C17.9159 3 21.9453 7.02944 21.9453 12C21.9453 16.9706 17.9159 21 12.9453 21Z" fill="#215369"/>
</svg>
