<svg width="435" height="24" viewBox="0 0 435 24" fill="none" xmlns="http://www.w3.org/2000/svg">
<path d="M9.25 10.5C11.3211 10.5 13 8.82107 13 6.75C13 4.67893 11.3211 3 9.25 3C7.17893 3 5.5 4.67893 5.5 6.75C5.5 8.82107 7.17893 10.5 9.25 10.5ZM9.25 9.5C7.73122 9.5 6.5 8.26878 6.5 6.75C6.5 5.23122 7.73122 4 9.25 4C10.7688 4 12 5.23122 12 6.75C12 8.26878 10.7688 9.5 9.25 9.5Z" fill="white"/>
<path d="M3.5 18.0526C3.5 14.7383 6.19195 12.0526 9.50506 12.0526C12.7984 12.0526 15.477 14.7108 15.4999 18H19.0435C19.8479 18 20.5 18.6521 20.5 19.4565C20.5 20.3089 19.809 21 18.9565 21H16C15.7239 21 15.5 20.7761 15.5 20.5C15.5 20.2238 15.7239 20 16 20H18.9565C19.2567 20 19.5 19.7567 19.5 19.4565C19.5 19.2044 19.2956 19 19.0435 19H15.4575C14.9287 19 14.5 18.5713 14.5 18.0425C14.5 15.2873 12.2615 13.0526 9.50506 13.0526C6.74304 13.0526 4.5 15.2918 4.5 18.0526V20.5C4.5 20.7761 4.27614 21 4 21C3.72386 21 3.5 20.7761 3.5 20.5V18.0526Z" fill="white"/>
<path d="M15.5 4C15.2239 4 15 4.22386 15 4.5C15 4.77614 15.2239 5 15.5 5H20C20.2762 5 20.5 5.22386 20.5 5.5V14.5C20.5 14.7761 20.2762 15 20 15H17.5C17.2239 15 17 15.2239 17 15.5C17 15.7761 17.2239 16 17.5 16H20C20.8284 16 21.5 15.3284 21.5 14.5V5.5C21.5 4.67157 20.8284 4 20 4H15.5Z" fill="white"/>
<path d="M35.596 13.216V18H34.052V6.536H37.292C38.0173 6.536 38.644 6.61067 39.172 6.76C39.7 6.904 40.1347 7.11467 40.476 7.392C40.8227 7.66933 41.0787 8.00533 41.244 8.4C41.4093 8.78933 41.492 9.22667 41.492 9.712C41.492 10.1173 41.428 10.496 41.3 10.848C41.172 11.2 40.9853 11.5173 40.74 11.8C40.5 12.0773 40.204 12.3147 39.852 12.512C39.5053 12.7093 39.1107 12.8587 38.668 12.96C38.86 13.072 39.0307 13.2347 39.18 13.448L42.524 18H41.148C40.8653 18 40.6573 17.8907 40.524 17.672L37.548 13.576C37.4573 13.448 37.3587 13.3573 37.252 13.304C37.1453 13.2453 36.9853 13.216 36.772 13.216H35.596ZM35.596 12.088H37.22C37.6733 12.088 38.0707 12.0347 38.412 11.928C38.7587 11.816 39.0467 11.6613 39.276 11.464C39.5107 11.2613 39.6867 11.0213 39.804 10.744C39.9213 10.4667 39.98 10.16 39.98 9.824C39.98 9.14133 39.7533 8.62667 39.3 8.28C38.852 7.93333 38.1827 7.76 37.292 7.76H35.596V12.088ZM47.2449 9.768C47.8369 9.768 48.3702 9.86667 48.8449 10.064C49.3249 10.2613 49.7302 10.5413 50.0609 10.904C50.3969 11.2667 50.6529 11.7067 50.8289 12.224C51.0102 12.736 51.1009 13.3093 51.1009 13.944C51.1009 14.584 51.0102 15.16 50.8289 15.672C50.6529 16.184 50.3969 16.6213 50.0609 16.984C49.7302 17.3467 49.3249 17.6267 48.8449 17.824C48.3702 18.016 47.8369 18.112 47.2449 18.112C46.6529 18.112 46.1169 18.016 45.6369 17.824C45.1622 17.6267 44.7569 17.3467 44.4209 16.984C44.0849 16.6213 43.8262 16.184 43.6449 15.672C43.4635 15.16 43.3729 14.584 43.3729 13.944C43.3729 13.3093 43.4635 12.736 43.6449 12.224C43.8262 11.7067 44.0849 11.2667 44.4209 10.904C44.7569 10.5413 45.1622 10.2613 45.6369 10.064C46.1169 9.86667 46.6529 9.768 47.2449 9.768ZM47.2449 17C48.0449 17 48.6422 16.7333 49.0369 16.2C49.4315 15.6613 49.6289 14.912 49.6289 13.952C49.6289 12.9867 49.4315 12.2347 49.0369 11.696C48.6422 11.1573 48.0449 10.888 47.2449 10.888C46.8395 10.888 46.4875 10.9573 46.1889 11.096C45.8902 11.2347 45.6395 11.4347 45.4369 11.696C45.2395 11.9573 45.0902 12.28 44.9889 12.664C44.8929 13.0427 44.8449 13.472 44.8449 13.952C44.8449 14.432 44.8929 14.8613 44.9889 15.24C45.0902 15.6187 45.2395 15.9387 45.4369 16.2C45.6395 16.456 45.8902 16.6533 46.1889 16.792C46.4875 16.9307 46.8395 17 47.2449 17ZM57.4955 11.232C57.4315 11.3493 57.3328 11.408 57.1995 11.408C57.1195 11.408 57.0288 11.3787 56.9275 11.32C56.8262 11.2613 56.7008 11.1973 56.5515 11.128C56.4075 11.0533 56.2342 10.9867 56.0315 10.928C55.8288 10.864 55.5888 10.832 55.3115 10.832C55.0715 10.832 54.8555 10.864 54.6635 10.928C54.4715 10.9867 54.3062 11.0693 54.1675 11.176C54.0342 11.2827 53.9302 11.408 53.8555 11.552C53.7862 11.6907 53.7515 11.8427 53.7515 12.008C53.7515 12.216 53.8102 12.3893 53.9275 12.528C54.0502 12.6667 54.2102 12.7867 54.4075 12.888C54.6048 12.9893 54.8288 13.08 55.0795 13.16C55.3302 13.2347 55.5862 13.3173 55.8475 13.408C56.1142 13.4933 56.3728 13.5893 56.6235 13.696C56.8742 13.8027 57.0982 13.936 57.2955 14.096C57.4928 14.256 57.6502 14.4533 57.7675 14.688C57.8902 14.9173 57.9515 15.1947 57.9515 15.52C57.9515 15.8933 57.8848 16.24 57.7515 16.56C57.6182 16.8747 57.4208 17.1493 57.1595 17.384C56.8982 17.6133 56.5782 17.7947 56.1995 17.928C55.8208 18.0613 55.3835 18.128 54.8875 18.128C54.3222 18.128 53.8102 18.0373 53.3515 17.856C52.8928 17.6693 52.5035 17.432 52.1835 17.144L52.5195 16.6C52.5622 16.5307 52.6128 16.4773 52.6715 16.44C52.7302 16.4027 52.8075 16.384 52.9035 16.384C52.9995 16.384 53.1008 16.4213 53.2075 16.496C53.3142 16.5707 53.4422 16.6533 53.5915 16.744C53.7462 16.8347 53.9302 16.9173 54.1435 16.992C54.3622 17.0667 54.6342 17.104 54.9595 17.104C55.2368 17.104 55.4795 17.0693 55.6875 17C55.8955 16.9253 56.0688 16.8267 56.2075 16.704C56.3462 16.5813 56.4475 16.44 56.5115 16.28C56.5808 16.12 56.6155 15.9493 56.6155 15.768C56.6155 15.544 56.5542 15.36 56.4315 15.216C56.3142 15.0667 56.1568 14.9413 55.9595 14.84C55.7622 14.7333 55.5355 14.6427 55.2795 14.568C55.0288 14.488 54.7702 14.4053 54.5035 14.32C54.2422 14.2347 53.9835 14.1387 53.7275 14.032C53.4768 13.92 53.2528 13.7813 53.0555 13.616C52.8582 13.4507 52.6982 13.248 52.5755 13.008C52.4582 12.7627 52.3995 12.4667 52.3995 12.12C52.3995 11.8107 52.4635 11.5147 52.5915 11.232C52.7195 10.944 52.9062 10.6933 53.1515 10.48C53.3968 10.2613 53.6982 10.088 54.0555 9.96C54.4128 9.832 54.8208 9.768 55.2795 9.768C55.8128 9.768 56.2902 9.85333 56.7115 10.024C57.1382 10.1893 57.5062 10.4187 57.8155 10.712L57.4955 11.232ZM64.433 11.232C64.369 11.3493 64.2703 11.408 64.137 11.408C64.057 11.408 63.9663 11.3787 63.865 11.32C63.7637 11.2613 63.6383 11.1973 63.489 11.128C63.345 11.0533 63.1717 10.9867 62.969 10.928C62.7663 10.864 62.5263 10.832 62.249 10.832C62.009 10.832 61.793 10.864 61.601 10.928C61.409 10.9867 61.2437 11.0693 61.105 11.176C60.9717 11.2827 60.8677 11.408 60.793 11.552C60.7237 11.6907 60.689 11.8427 60.689 12.008C60.689 12.216 60.7477 12.3893 60.865 12.528C60.9877 12.6667 61.1477 12.7867 61.345 12.888C61.5423 12.9893 61.7663 13.08 62.017 13.16C62.2677 13.2347 62.5237 13.3173 62.785 13.408C63.0517 13.4933 63.3103 13.5893 63.561 13.696C63.8117 13.8027 64.0357 13.936 64.233 14.096C64.4303 14.256 64.5877 14.4533 64.705 14.688C64.8277 14.9173 64.889 15.1947 64.889 15.52C64.889 15.8933 64.8223 16.24 64.689 16.56C64.5557 16.8747 64.3583 17.1493 64.097 17.384C63.8357 17.6133 63.5157 17.7947 63.137 17.928C62.7583 18.0613 62.321 18.128 61.825 18.128C61.2597 18.128 60.7477 18.0373 60.289 17.856C59.8303 17.6693 59.441 17.432 59.121 17.144L59.457 16.6C59.4997 16.5307 59.5503 16.4773 59.609 16.44C59.6677 16.4027 59.745 16.384 59.841 16.384C59.937 16.384 60.0383 16.4213 60.145 16.496C60.2517 16.5707 60.3797 16.6533 60.529 16.744C60.6837 16.8347 60.8677 16.9173 61.081 16.992C61.2997 17.0667 61.5717 17.104 61.897 17.104C62.1743 17.104 62.417 17.0693 62.625 17C62.833 16.9253 63.0063 16.8267 63.145 16.704C63.2837 16.5813 63.385 16.44 63.449 16.28C63.5183 16.12 63.553 15.9493 63.553 15.768C63.553 15.544 63.4917 15.36 63.369 15.216C63.2517 15.0667 63.0943 14.9413 62.897 14.84C62.6997 14.7333 62.473 14.6427 62.217 14.568C61.9663 14.488 61.7077 14.4053 61.441 14.32C61.1797 14.2347 60.921 14.1387 60.665 14.032C60.4143 13.92 60.1903 13.7813 59.993 13.616C59.7957 13.4507 59.6357 13.248 59.513 13.008C59.3957 12.7627 59.337 12.4667 59.337 12.12C59.337 11.8107 59.401 11.5147 59.529 11.232C59.657 10.944 59.8437 10.6933 60.089 10.48C60.3343 10.2613 60.6357 10.088 60.993 9.96C61.3503 9.832 61.7583 9.768 62.217 9.768C62.7503 9.768 63.2277 9.85333 63.649 10.024C64.0757 10.1893 64.4437 10.4187 64.753 10.712L64.433 11.232ZM70.0483 18V6.536H73.7043C74.4083 6.536 75.0136 6.60533 75.5203 6.744C76.0323 6.88267 76.4509 7.08 76.7763 7.336C77.1069 7.592 77.3496 7.90667 77.5043 8.28C77.6643 8.648 77.7443 9.064 77.7443 9.528C77.7443 9.81067 77.6989 10.0827 77.6083 10.344C77.5229 10.6053 77.3896 10.848 77.2083 11.072C77.0323 11.296 76.8083 11.496 76.5363 11.672C76.2696 11.848 75.9549 11.992 75.5923 12.104C76.4296 12.2693 77.0616 12.5707 77.4883 13.008C77.9149 13.4453 78.1283 14.0213 78.1283 14.736C78.1283 15.2213 78.0376 15.664 77.8563 16.064C77.6803 16.464 77.4189 16.808 77.0723 17.096C76.7309 17.384 76.3096 17.608 75.8083 17.768C75.3123 17.9227 74.7443 18 74.1043 18H70.0483ZM71.6003 12.776V16.768H74.0803C74.5229 16.768 74.9016 16.7173 75.2163 16.616C75.5363 16.5147 75.7976 16.3733 76.0003 16.192C76.2083 16.0053 76.3603 15.7867 76.4563 15.536C76.5523 15.28 76.6003 15 76.6003 14.696C76.6003 14.104 76.3896 13.6373 75.9683 13.296C75.5523 12.9493 74.9203 12.776 74.0723 12.776H71.6003ZM71.6003 11.672H73.6483C74.0856 11.672 74.4643 11.624 74.7843 11.528C75.1043 11.432 75.3683 11.2987 75.5763 11.128C75.7896 10.9573 75.9469 10.752 76.0483 10.512C76.1496 10.2667 76.2003 10 76.2003 9.712C76.2003 9.04 75.9976 8.54667 75.5923 8.232C75.1869 7.91733 74.5576 7.76 73.7043 7.76H71.6003V11.672ZM83.3916 9.768C83.877 9.768 84.325 9.85067 84.7356 10.016C85.1463 10.176 85.501 10.4107 85.7996 10.72C86.0983 11.024 86.3303 11.4027 86.4956 11.856C86.6663 12.304 86.7516 12.816 86.7516 13.392C86.7516 13.616 86.7276 13.7653 86.6796 13.84C86.6316 13.9147 86.541 13.952 86.4076 13.952H81.0156C81.0263 14.464 81.0956 14.9093 81.2236 15.288C81.3516 15.6667 81.5276 15.984 81.7516 16.24C81.9756 16.4907 82.2423 16.68 82.5516 16.808C82.861 16.9307 83.2076 16.992 83.5916 16.992C83.949 16.992 84.2556 16.952 84.5116 16.872C84.773 16.7867 84.997 16.696 85.1836 16.6C85.3703 16.504 85.525 16.416 85.6476 16.336C85.7756 16.2507 85.885 16.208 85.9756 16.208C86.093 16.208 86.1836 16.2533 86.2476 16.344L86.6476 16.864C86.4716 17.0773 86.261 17.264 86.0156 17.424C85.7703 17.5787 85.5063 17.7067 85.2236 17.808C84.9463 17.9093 84.6583 17.984 84.3596 18.032C84.061 18.0853 83.765 18.112 83.4716 18.112C82.9116 18.112 82.3943 18.0187 81.9196 17.832C81.4503 17.64 81.0423 17.3627 80.6956 17C80.3543 16.632 80.0876 16.1787 79.8956 15.64C79.7036 15.1013 79.6076 14.4827 79.6076 13.784C79.6076 13.2187 79.693 12.6907 79.8636 12.2C80.0396 11.7093 80.2903 11.2853 80.6156 10.928C80.941 10.5653 81.3383 10.2827 81.8076 10.08C82.277 9.872 82.805 9.768 83.3916 9.768ZM83.4236 10.816C82.7356 10.816 82.1943 11.016 81.7996 11.416C81.405 11.8107 81.1596 12.36 81.0636 13.064H85.4716C85.4716 12.7333 85.4263 12.432 85.3356 12.16C85.245 11.8827 85.1116 11.6453 84.9356 11.448C84.7596 11.2453 84.5436 11.0907 84.2876 10.984C84.037 10.872 83.749 10.816 83.4236 10.816ZM88.5743 18V9.896H89.4223C89.6249 9.896 89.7529 9.99467 89.8063 10.192L89.9183 11.072C90.2703 10.6827 90.6623 10.368 91.0943 10.128C91.5316 9.888 92.0356 9.768 92.6063 9.768C93.0489 9.768 93.4383 9.84267 93.7743 9.992C94.1156 10.136 94.3983 10.344 94.6223 10.616C94.8516 10.8827 95.0249 11.2053 95.1423 11.584C95.2596 11.9627 95.3183 12.3813 95.3183 12.84V18H93.8943V12.84C93.8943 12.2267 93.7529 11.752 93.4703 11.416C93.1929 11.0747 92.7663 10.904 92.1903 10.904C91.7689 10.904 91.3743 11.0053 91.0063 11.208C90.6436 11.4107 90.3076 11.6853 89.9983 12.032V18H88.5743ZM97.4649 18V9.896H98.3129C98.5155 9.896 98.6435 9.99467 98.6969 10.192L98.8089 11.072C99.1609 10.6827 99.5529 10.368 99.9849 10.128C100.422 9.888 100.926 9.768 101.497 9.768C101.94 9.768 102.329 9.84267 102.665 9.992C103.006 10.136 103.289 10.344 103.513 10.616C103.742 10.8827 103.916 11.2053 104.033 11.584C104.15 11.9627 104.209 12.3813 104.209 12.84V18H102.785V12.84C102.785 12.2267 102.644 11.752 102.361 11.416C102.084 11.0747 101.657 10.904 101.081 10.904C100.66 10.904 100.265 11.0053 99.8969 11.208C99.5342 11.4107 99.1982 11.6853 98.8889 12.032V18H97.4649ZM109.564 9.768C110.049 9.768 110.497 9.85067 110.908 10.016C111.318 10.176 111.673 10.4107 111.972 10.72C112.27 11.024 112.502 11.4027 112.668 11.856C112.838 12.304 112.924 12.816 112.924 13.392C112.924 13.616 112.9 13.7653 112.852 13.84C112.804 13.9147 112.713 13.952 112.58 13.952H107.188C107.198 14.464 107.268 14.9093 107.396 15.288C107.524 15.6667 107.7 15.984 107.924 16.24C108.148 16.4907 108.414 16.68 108.724 16.808C109.033 16.9307 109.38 16.992 109.764 16.992C110.121 16.992 110.428 16.952 110.684 16.872C110.945 16.7867 111.169 16.696 111.356 16.6C111.542 16.504 111.697 16.416 111.82 16.336C111.948 16.2507 112.057 16.208 112.148 16.208C112.265 16.208 112.356 16.2533 112.42 16.344L112.82 16.864C112.644 17.0773 112.433 17.264 112.188 17.424C111.942 17.5787 111.678 17.7067 111.396 17.808C111.118 17.9093 110.83 17.984 110.532 18.032C110.233 18.0853 109.937 18.112 109.644 18.112C109.084 18.112 108.566 18.0187 108.092 17.832C107.622 17.64 107.214 17.3627 106.868 17C106.526 16.632 106.26 16.1787 106.068 15.64C105.876 15.1013 105.78 14.4827 105.78 13.784C105.78 13.2187 105.865 12.6907 106.036 12.2C106.212 11.7093 106.462 11.2853 106.788 10.928C107.113 10.5653 107.51 10.2827 107.98 10.08C108.449 9.872 108.977 9.768 109.564 9.768ZM109.595 10.816C108.908 10.816 108.366 11.016 107.972 11.416C107.577 11.8107 107.332 12.36 107.236 13.064H111.644C111.644 12.7333 111.598 12.432 111.508 12.16C111.417 11.8827 111.284 11.6453 111.108 11.448C110.932 11.2453 110.716 11.0907 110.46 10.984C110.209 10.872 109.921 10.816 109.595 10.816ZM117.202 18.128C116.562 18.128 116.069 17.9493 115.722 17.592C115.381 17.2347 115.21 16.72 115.21 16.048V11.088H114.234C114.149 11.088 114.077 11.064 114.018 11.016C113.959 10.9627 113.93 10.8827 113.93 10.776V10.208L115.258 10.04L115.586 7.536C115.597 7.456 115.631 7.392 115.69 7.344C115.749 7.29067 115.823 7.264 115.914 7.264H116.634V10.056H118.954V11.088H116.634V15.952C116.634 16.2933 116.717 16.5467 116.882 16.712C117.047 16.8773 117.261 16.96 117.522 16.96C117.671 16.96 117.799 16.9413 117.906 16.904C118.018 16.8613 118.114 16.816 118.194 16.768C118.274 16.72 118.341 16.6773 118.394 16.64C118.453 16.5973 118.503 16.576 118.546 16.576C118.621 16.576 118.687 16.6213 118.746 16.712L119.162 17.392C118.917 17.6213 118.621 17.8027 118.274 17.936C117.927 18.064 117.57 18.128 117.202 18.128ZM123.171 18.128C122.531 18.128 122.038 17.9493 121.691 17.592C121.35 17.2347 121.179 16.72 121.179 16.048V11.088H120.203C120.118 11.088 120.046 11.064 119.987 11.016C119.928 10.9627 119.899 10.8827 119.899 10.776V10.208L121.227 10.04L121.555 7.536C121.566 7.456 121.6 7.392 121.659 7.344C121.718 7.29067 121.792 7.264 121.883 7.264H122.603V10.056H124.923V11.088H122.603V15.952C122.603 16.2933 122.686 16.5467 122.851 16.712C123.016 16.8773 123.23 16.96 123.491 16.96C123.64 16.96 123.768 16.9413 123.875 16.904C123.987 16.8613 124.083 16.816 124.163 16.768C124.243 16.72 124.31 16.6773 124.363 16.64C124.422 16.5973 124.472 16.576 124.515 16.576C124.59 16.576 124.656 16.6213 124.715 16.712L125.131 17.392C124.886 17.6213 124.59 17.8027 124.243 17.936C123.896 18.064 123.539 18.128 123.171 18.128Z" fill="white"/>
</svg>
