<svg width="48" height="48" viewBox="0 0 48 48" fill="none" xmlns="http://www.w3.org/2000/svg">
<path d="M8 9.00781C5.23858 9.00781 3 11.2464 3 14.0078V34.0078C3 36.7692 5.23858 39.0078 8 39.0078H8.9958C9.54808 39.0078 9.9958 38.5601 9.9958 38.0078C9.9958 37.4555 9.54808 37.0078 8.9958 37.0078H8C6.34315 37.0078 5 35.6647 5 34.0078V14.0078C5 12.351 6.34315 11.0078 8 11.0078H40C41.6569 11.0078 43 12.351 43 14.0078V34.0078C43 35.6647 41.6569 37.0078 40 37.0078H15C14.4477 37.0078 14 37.4555 14 38.0078C14 38.5601 14.4477 39.0078 15 39.0078H40C42.7614 39.0078 45 36.7692 45 34.0078V14.0078C45 11.2464 42.7614 9.00781 40 9.00781H8Z" fill="#1F1F1F"/>
<path d="M22.59 16.8766C20.5919 15.6277 18 17.0642 18 19.4206V28.5951C18 30.9514 20.5919 32.3879 22.59 31.1391L29.9296 26.5518C31.8096 25.3768 31.8096 22.6388 29.9296 21.4638L22.59 16.8766ZM28.8696 23.1598C29.4963 23.5515 29.4963 24.4641 28.8696 24.8558L21.53 29.4431C20.864 29.8593 20 29.3805 20 28.5951V19.4206C20 18.6351 20.864 18.1563 21.53 18.5726L28.8696 23.1598Z" fill="#1F1F1F"/>
</svg>
