<svg width="24" height="24" viewBox="0 0 24 24" fill="none" xmlns="http://www.w3.org/2000/svg">
<path d="M4 4.5C2.61929 4.5 1.5 5.61929 1.5 7V17C1.5 18.3807 2.61929 19.5 4 19.5H4.4979C4.77404 19.5 4.9979 19.2761 4.9979 19C4.9979 18.7239 4.77404 18.5 4.4979 18.5H4C3.17157 18.5 2.5 17.8284 2.5 17V7C2.5 6.17157 3.17157 5.5 4 5.5H20C20.8284 5.5 21.5 6.17157 21.5 7V17C21.5 17.8284 20.8284 18.5 20 18.5H7.5C7.22386 18.5 7 18.7239 7 19C7 19.2761 7.22386 19.5 7.5 19.5H20C21.3807 19.5 22.5 18.3807 22.5 17V7C22.5 5.61929 21.3807 4.5 20 4.5H4Z" fill="#276D8B"/>
<path d="M11.295 8.43437C10.2959 7.80995 9 8.52822 9 9.70637V14.2936C9 15.4718 10.2959 16.19 11.295 15.5656L14.9648 13.272C15.9048 12.6845 15.9048 11.3155 14.9648 10.728L11.295 8.43437ZM14.4348 11.576C14.7481 11.7718 14.7481 12.2282 14.4348 12.424L10.765 14.7176C10.432 14.9258 10 14.6863 10 14.2936V9.70637C10 9.31365 10.432 9.07423 10.765 9.28237L14.4348 11.576Z" fill="#276D8B"/>
</svg>
