<svg width="435" height="24" viewBox="0 0 435 24" fill="none" xmlns="http://www.w3.org/2000/svg">
<path d="M9.25 10.5C11.3211 10.5 13 8.82107 13 6.75C13 4.67893 11.3211 3 9.25 3C7.17893 3 5.5 4.67893 5.5 6.75C5.5 8.82107 7.17893 10.5 9.25 10.5ZM9.25 9.5C7.73122 9.5 6.5 8.26878 6.5 6.75C6.5 5.23122 7.73122 4 9.25 4C10.7688 4 12 5.23122 12 6.75C12 8.26878 10.7688 9.5 9.25 9.5Z" fill="white"/>
<path d="M3.5 18.0526C3.5 14.7383 6.19195 12.0526 9.50506 12.0526C12.7984 12.0526 15.477 14.7108 15.4999 18H19.0435C19.8479 18 20.5 18.6521 20.5 19.4565C20.5 20.3089 19.809 21 18.9565 21H16C15.7239 21 15.5 20.7761 15.5 20.5C15.5 20.2238 15.7239 20 16 20H18.9565C19.2567 20 19.5 19.7567 19.5 19.4565C19.5 19.2044 19.2956 19 19.0435 19H15.4575C14.9287 19 14.5 18.5713 14.5 18.0425C14.5 15.2873 12.2615 13.0526 9.50506 13.0526C6.74304 13.0526 4.5 15.2918 4.5 18.0526V20.5C4.5 20.7761 4.27614 21 4 21C3.72386 21 3.5 20.7761 3.5 20.5V18.0526Z" fill="white"/>
<path d="M15.5 4C15.2239 4 15 4.22386 15 4.5C15 4.77614 15.2239 5 15.5 5H20C20.2762 5 20.5 5.22386 20.5 5.5V14.5C20.5 14.7761 20.2762 15 20 15H17.5C17.2239 15 17 15.2239 17 15.5C17 15.7761 17.2239 16 17.5 16H20C20.8284 16 21.5 15.3284 21.5 14.5V5.5C21.5 4.67157 20.8284 4 20 4H15.5Z" fill="white"/>
</svg>
