<svg width="33" height="33" viewBox="0 0 33 33" fill="none" xmlns="http://www.w3.org/2000/svg">
<path d="M7.57552 4.80078C7.57552 4.43259 7.874 4.13411 8.24219 4.13411H19.5755V6.80078C19.5755 7.90535 20.471 8.80078 21.5755 8.80078H24.9089V13.4674C24.9089 13.8356 25.2073 14.1341 25.5755 14.1341C25.9437 14.1341 26.2422 13.8356 26.2422 13.4674V8.4563C26.2422 7.93287 26.037 7.43029 25.6706 7.05645L22.0882 3.40092C21.712 3.01708 21.1972 2.80078 20.6598 2.80078H8.24219C7.13762 2.80078 6.24219 3.69621 6.24219 4.80078V28.8008C6.24219 29.9053 7.13762 30.8008 8.24219 30.8008H24.2422C25.3468 30.8008 26.2422 29.9053 26.2422 28.8008V24.8008C26.2422 24.4326 25.9437 24.1341 25.5755 24.1341C25.2073 24.1341 24.9089 24.4326 24.9089 24.8008V28.8008C24.9089 29.169 24.6104 29.4674 24.2422 29.4674H8.24219C7.874 29.4674 7.57552 29.169 7.57552 28.8008V4.80078ZM24.2065 7.46745H21.5755C21.2073 7.46745 20.9089 7.16897 20.9089 6.80078V4.18239C20.9934 4.21644 21.0709 4.26779 21.1359 4.33416L24.2065 7.46745Z" fill="#2E7FA1"/>
<path d="M15.3803 20.4664C15.6407 20.206 16.0628 20.206 16.3231 20.4664L19.755 23.8982L28.3414 15.3117C28.6018 15.0514 29.0239 15.0514 29.2842 15.3117C29.5446 15.5721 29.5446 15.9942 29.2842 16.2546L20.227 25.3117C20.0931 25.4456 19.9164 25.5107 19.741 25.5068C19.5748 25.5035 19.4096 25.4385 19.2829 25.3117L15.3803 21.4092C15.12 21.1488 15.12 20.7267 15.3803 20.4664Z" fill="#2E7FA1"/>
</svg>
