<svg width="33" height="32" viewBox="0 0 33 32" fill="none" xmlns="http://www.w3.org/2000/svg">
<path d="M11.5755 4.67057C11.5755 4.30238 11.874 4.00391 12.2422 4.00391H26.9089C27.6452 4.00391 28.2422 4.60086 28.2422 5.33724V14.6706C28.2422 15.0388 27.9437 15.3372 27.5755 15.3372C27.2073 15.3372 26.9089 15.0388 26.9089 14.6706V5.33724H12.2422C11.874 5.33724 11.5755 5.03876 11.5755 4.67057Z" fill="#2E7FA1"/>
<path d="M8.24219 7.33724C7.874 7.33724 7.57552 7.63572 7.57552 8.00391C7.57552 8.3721 7.874 8.67057 8.24219 8.67057H22.9089V18.0039C22.9089 18.3721 23.2073 18.6706 23.5755 18.6706C23.9437 18.6706 24.2422 18.3721 24.2422 18.0039V8.67057C24.2422 7.93419 23.6452 7.33724 22.9089 7.33724H8.24219Z" fill="#2E7FA1"/>
<path fill-rule="evenodd" clip-rule="evenodd" d="M5.57552 10.6706C4.83914 10.6706 4.24219 11.2675 4.24219 12.0039V20.6706C4.24219 21.407 4.83914 22.0039 5.57552 22.0039H10.2603L10.2434 26.6706H8.24219C7.874 26.6706 7.57552 26.9691 7.57552 27.3372C7.57552 27.7054 7.874 28.0039 8.24219 28.0039H16.9089C17.277 28.0039 17.5755 27.7054 17.5755 27.3372C17.5755 26.9691 17.277 26.6706 16.9089 26.6706H11.5767L11.5936 22.0039H14.2377L14.2511 24.0083C14.2535 24.3765 14.554 24.6729 14.9222 24.6705C15.2903 24.668 15.5868 24.3675 15.5844 23.9994L15.571 22.0039H19.5755C20.3119 22.0039 20.9089 21.407 20.9089 20.6706V12.0039C20.9089 11.2675 20.3119 10.6706 19.5755 10.6706H5.57552ZM14.8954 20.6706L14.906 20.6706H19.5755V12.0039H5.57552V20.6706H14.894L14.8954 20.6706Z" fill="#2E7FA1"/>
</svg>
