<svg width="100" height="61" viewBox="0 0 100 61" fill="none" xmlns="http://www.w3.org/2000/svg">
<path d="M56.0165 32.4729H53.8519L53.3717 33.8579H52.25L54.3584 28.1484H55.5701L57.6785 33.8579H56.5005L56.0165 32.4729ZM55.7126 31.5809L54.9361 29.3453L54.1595 31.5809H55.7126Z" fill="#020203"/>
<path d="M64.5659 30.1453C64.8135 30.4388 64.9373 30.8679 64.9373 31.4249V33.86H63.9019V31.5604C63.9019 31.2669 63.8381 31.0373 63.7106 30.8754C63.583 30.7136 63.3955 30.6346 63.1479 30.6346C62.7615 30.6346 62.4388 30.8265 62.18 31.2142V31.3271V33.86H61.152V31.4776C61.152 31.2217 61.0883 31.0147 60.957 30.8641C60.8257 30.7098 60.6418 30.6346 60.4017 30.6346C60.0116 30.6346 59.6852 30.8303 59.4226 31.2217V33.86H58.3984V29.7915H59.4226V30.3372C59.7527 29.9157 60.1879 29.7012 60.7206 29.7012C61.0433 29.7012 61.3096 29.7651 61.5272 29.8931C61.7448 30.0211 61.9099 30.2093 62.0186 30.4577C62.1987 30.2281 62.4088 30.0437 62.6414 29.9082C62.874 29.7727 63.1516 29.7012 63.4705 29.7012C63.9544 29.7012 64.3183 29.848 64.5659 30.1453Z" fill="#020203"/>
<path d="M69.8471 32.0797H66.8159C66.8534 32.3958 66.9772 32.6405 67.1873 32.8098C67.3974 32.983 67.6787 33.0658 68.0239 33.0658C68.2677 33.0658 68.5003 33.0281 68.7179 32.9529C68.9355 32.8776 69.1118 32.7873 69.2506 32.6781L69.6258 33.4083C69.1681 33.7583 68.6091 33.9314 67.9601 33.9314C67.5099 33.9314 67.1198 33.8411 66.7896 33.6567C66.4595 33.476 66.2044 33.2238 66.0281 32.9002C65.8518 32.5765 65.7617 32.2152 65.7617 31.8162C65.7617 31.4097 65.8518 31.0447 66.0318 30.7248C66.2119 30.4048 66.4595 30.1564 66.7784 29.972C67.0973 29.7914 67.4574 29.6973 67.8626 29.6973C68.2565 29.6973 68.6054 29.7876 68.9055 29.972C69.2056 30.1564 69.4345 30.4124 69.5995 30.7473C69.7608 31.0823 69.8434 31.4737 69.8434 31.9178V32.0797H69.8471ZM68.7967 31.3721C68.7592 31.1049 68.6579 30.8941 68.4928 30.7398C68.3278 30.5855 68.1177 30.5102 67.8663 30.5102C67.6037 30.5102 67.3824 30.5855 67.1986 30.736C67.0147 30.8866 66.8947 31.0974 66.8422 31.3721H68.7967Z" fill="#020203"/>
<path d="M73.0586 29.7832V30.7956H72.6835C72.4321 30.7956 72.2333 30.837 72.0832 30.9236C71.9332 31.0102 71.8094 31.1457 71.7081 31.3338V33.8593H70.6914V29.7907H71.7081V30.4418C71.8206 30.201 71.9632 30.0316 72.1395 29.93C72.3158 29.8321 72.5259 29.7832 72.766 29.7832H73.0586Z" fill="#020203"/>
<path d="M74.016 28.9982C73.896 28.8777 73.8359 28.7272 73.8359 28.554C73.8359 28.3771 73.896 28.2266 74.016 28.1024C74.1361 27.9782 74.2861 27.918 74.4624 27.918C74.6388 27.918 74.7888 27.9782 74.9089 28.1024C75.0289 28.2266 75.089 28.3771 75.089 28.554C75.089 28.7309 75.0289 28.8815 74.9089 28.9982C74.7888 29.1186 74.6388 29.1788 74.4624 29.1788C74.2861 29.1788 74.1361 29.1186 74.016 28.9982ZM73.941 29.7923H74.9652V33.8608H73.941V29.7923Z" fill="#020203"/>
<path d="M76.8315 33.6758C76.5014 33.4989 76.2463 33.2505 76.0587 32.9306C75.8711 32.6107 75.7773 32.2493 75.7773 31.8391C75.7773 31.4213 75.8711 31.0525 76.055 30.7288C76.2388 30.4089 76.4976 30.1567 76.824 29.9761C77.1542 29.7954 77.5218 29.7051 77.9345 29.7051C78.4672 29.7051 78.9436 29.8406 79.3601 30.1153L78.9361 30.9283C78.6623 30.7363 78.3584 30.6385 78.0208 30.6385C77.6644 30.6385 77.3793 30.7476 77.1654 30.9659C76.9553 31.1842 76.8503 31.4665 76.8503 31.8203C76.8503 32.1741 76.9553 32.4601 77.1692 32.6784C77.383 32.8967 77.6681 33.0058 78.0208 33.0058C78.3734 33.0058 78.6885 32.9118 78.9662 32.7236L79.3676 33.5177C79.1425 33.6607 78.9249 33.7699 78.7148 33.8339C78.5047 33.9016 78.2384 33.9355 77.927 33.9355C77.5256 33.9392 77.1617 33.8527 76.8315 33.6758Z" fill="#020203"/>
<path d="M84.1717 32.8779C84.2579 32.9419 84.393 32.9757 84.5693 32.9757V33.9016H84.483C83.7177 33.9016 83.2825 33.6946 83.17 33.2843C82.9974 33.4989 82.7911 33.6607 82.5472 33.7736C82.3034 33.8865 82.037 33.943 81.7407 33.943C81.3505 33.943 81.0016 33.8527 80.6902 33.6682C80.3789 33.4876 80.1388 33.2354 79.9699 32.9117C79.7974 32.5881 79.7148 32.2267 79.7148 31.824C79.7148 31.4176 79.8011 31.0525 79.9699 30.7288C80.1388 30.4089 80.3826 30.1567 80.6902 29.9761C81.0016 29.7954 81.3505 29.7051 81.7407 29.7051C82.2584 29.7051 82.6823 29.8707 83.0162 30.2019V29.7841H84.0441V32.5504C84.0404 32.7047 84.0854 32.8139 84.1717 32.8779ZM83.0162 31.2444C82.9074 31.0563 82.7611 30.9132 82.5698 30.8116C82.3784 30.71 82.1571 30.6573 81.902 30.6573C81.5718 30.6573 81.3017 30.7664 81.0917 30.9772C80.8816 31.1917 80.7803 31.4702 80.7803 31.8127C80.7803 32.1665 80.8816 32.4526 81.0879 32.6671C81.2942 32.8816 81.5606 32.987 81.8945 32.987C82.1308 32.987 82.3522 32.9306 82.5585 32.8214C82.7686 32.7123 82.9186 32.5655 83.0162 32.3848V31.2444Z" fill="#020203"/>
<path d="M88.8952 30.1415C89.1616 30.4351 89.2929 30.8604 89.2929 31.4249V33.86H88.2575V31.5604C88.2575 31.2669 88.1824 31.0373 88.0361 30.8754C87.8898 30.7136 87.6797 30.6346 87.4059 30.6346C86.9857 30.6346 86.6293 30.8303 86.3404 31.2217V33.86H85.3125V29.7915H86.3404V30.3448C86.6931 29.9157 87.1545 29.7012 87.7285 29.7012C88.2424 29.7012 88.6289 29.8479 88.8952 30.1415Z" fill="#020203"/>
<path d="M57.581 36.1465V41.8597H56.4593V39.4924H53.9345V41.8597H52.8203V36.1465H53.9345V38.5138H56.4593V36.1465H57.581Z" fill="#020203"/>
<path d="M62.4878 40.0816H59.4565C59.494 40.3978 59.6178 40.6424 59.8279 40.8118C60.038 40.9849 60.3194 41.0677 60.6645 41.0677C60.9084 41.0677 61.141 41.0301 61.3585 40.9548C61.5761 40.8795 61.7525 40.7892 61.8913 40.68L62.2664 41.4102C61.805 41.7602 61.2497 41.9334 60.6007 41.9334C60.1505 41.9334 59.7604 41.843 59.4303 41.6586C59.1001 41.4779 58.845 41.2258 58.6687 40.9021C58.4924 40.5822 58.4023 40.2171 58.4023 39.8182C58.4023 39.4117 58.4924 39.0466 58.6725 38.7267C58.8525 38.4068 59.1001 38.1584 59.419 37.974C59.7379 37.7933 60.098 37.6992 60.5069 37.6992C60.9009 37.6992 61.2497 37.7895 61.5499 37.974C61.85 38.1546 62.0788 38.4143 62.2439 38.7493C62.4052 39.0843 62.4878 39.4719 62.4878 39.9198V40.0816ZM61.4373 39.374C61.3998 39.1068 61.2985 38.8961 61.1335 38.7418C60.9684 38.5874 60.7583 38.5122 60.5069 38.5122C60.2443 38.5122 60.023 38.5874 59.8392 38.738C59.6553 38.8885 59.5353 39.0993 59.4828 39.374H61.4373Z" fill="#020203"/>
<path d="M67.7263 40.8781C67.8164 40.9421 67.9477 40.976 68.124 40.976V41.9018H68.0377C67.2724 41.9018 66.8372 41.6949 66.7247 41.2846C66.5521 41.4991 66.3458 41.661 66.1019 41.7739C65.8581 41.8868 65.5917 41.9433 65.2954 41.9433C64.9052 41.9433 64.5563 41.8529 64.2449 41.6685C63.9336 41.4878 63.6935 41.2357 63.5246 40.912C63.3521 40.5921 63.2695 40.227 63.2695 39.8281C63.2695 39.4216 63.3558 39.0565 63.5246 38.7328C63.6972 38.4129 63.9373 38.1608 64.2449 37.9801C64.5563 37.7995 64.9052 37.7129 65.2954 37.7129C65.8131 37.7129 66.237 37.8785 66.5709 38.2097V37.7919H67.5988V40.5582C67.595 40.705 67.6363 40.8141 67.7263 40.8781ZM66.5671 39.2447C66.4583 39.0565 66.312 38.9135 66.1207 38.8119C65.9294 38.7103 65.708 38.6576 65.4529 38.6576C65.1228 38.6576 64.8527 38.7667 64.6426 38.9775C64.4325 39.192 64.3312 39.4705 64.3312 39.813C64.3312 40.1668 64.4325 40.4528 64.6388 40.6636C64.8452 40.8781 65.1115 40.9835 65.4454 40.9835C65.6818 40.9835 65.9031 40.9271 66.1094 40.8179C66.3195 40.7088 66.4696 40.562 66.5671 40.3813V39.2447Z" fill="#020203"/>
<path d="M71.2616 37.7793V38.7917H70.8865C70.6351 38.7917 70.4363 38.8331 70.2862 38.9197C70.1361 39.0063 70.0123 39.1417 69.9073 39.3299V41.8554H68.8906V37.7868H69.9073V38.4379C70.0198 38.1971 70.1624 38.0277 70.3387 37.9261C70.5151 37.8282 70.7251 37.7793 70.9652 37.7793H71.2616Z" fill="#020203"/>
<path d="M73.0263 41.5187C72.7524 41.2665 72.6174 40.86 72.6174 40.2955V38.6621H71.7695V37.7927H72.6174V36.5469H73.6528V37.7927H74.8233V38.6621H73.6528V40.1487C73.6528 40.4423 73.7091 40.653 73.8254 40.7772C73.9417 40.9014 74.103 40.9617 74.3168 40.9617H74.8233V41.8951H74.2718C73.7128 41.8951 73.3002 41.7709 73.0263 41.5187Z" fill="#020203"/>
<path d="M56.0165 48.4788H53.8519L53.3717 49.8638H52.25L54.3584 44.1543H55.5701L57.6785 49.8638H56.5005L56.0165 48.4788ZM55.7126 47.5868L54.9361 45.3511L54.1595 47.5868H55.7126Z" fill="#020203"/>
<path d="M58.5911 49.7809C58.3247 49.6755 58.0809 49.4986 57.8633 49.2577L58.441 48.6405C58.5761 48.7948 58.7374 48.919 58.9287 49.0093C59.12 49.0996 59.3189 49.1448 59.5215 49.1448C59.724 49.1448 59.8816 49.1109 59.9941 49.0432C60.1067 48.9754 60.163 48.8814 60.163 48.7572C60.163 48.6254 60.1029 48.52 59.9791 48.4485C59.8553 48.377 59.6265 48.2867 59.2889 48.1775C58.8949 48.0533 58.5911 47.8953 58.3772 47.7071C58.1672 47.5151 58.0621 47.2479 58.0621 46.8979C58.0621 46.5328 58.2047 46.243 58.4898 46.0247C58.7749 45.8064 59.1501 45.6973 59.6152 45.6973C59.9416 45.6973 60.2305 45.7462 60.4781 45.8478C60.7257 45.9457 60.9283 46.0887 61.0821 46.2693L60.4331 46.8715C60.3731 46.7586 60.2643 46.6645 60.1067 46.5893C59.9491 46.514 59.7803 46.4764 59.5965 46.4764C59.4239 46.4764 59.2926 46.5065 59.1988 46.5704C59.105 46.6307 59.06 46.7172 59.06 46.8226C59.06 46.9016 59.09 46.9732 59.1463 47.0296C59.2026 47.0861 59.2926 47.1388 59.4164 47.1915C59.5402 47.2404 59.7315 47.3119 59.9941 47.3947C60.3806 47.5189 60.6732 47.6732 60.872 47.8651C61.0708 48.0571 61.1721 48.3168 61.1721 48.648C61.1721 49.0281 61.0258 49.3368 60.7332 49.5776C60.4406 49.8147 60.0354 49.9352 59.5215 49.9352C59.1688 49.9427 58.8574 49.8863 58.5911 49.7809Z" fill="#020203"/>
<path d="M62.4075 49.7809C62.1411 49.6755 61.8973 49.4986 61.6797 49.2577L62.2574 48.6405C62.3925 48.7948 62.5538 48.919 62.7451 49.0093C62.9364 49.0996 63.1353 49.1448 63.3379 49.1448C63.5404 49.1448 63.698 49.1109 63.8106 49.0432C63.9231 48.9754 63.9794 48.8814 63.9794 48.7572C63.9794 48.6254 63.9193 48.52 63.7955 48.4485C63.6717 48.377 63.4429 48.2867 63.1053 48.1775C62.7114 48.0533 62.4075 47.8953 62.1974 47.7071C61.9873 47.5151 61.8823 47.2479 61.8823 46.8979C61.8823 46.5328 62.0248 46.243 62.3099 46.0247C62.5951 45.8064 62.9702 45.6973 63.4354 45.6973C63.7618 45.6973 64.0469 45.7462 64.2982 45.8478C64.5458 45.9457 64.7484 46.0887 64.9022 46.2693L64.2532 46.8715C64.1932 46.7586 64.0844 46.6645 63.9268 46.5893C63.7693 46.514 63.6005 46.4764 63.4166 46.4764C63.2441 46.4764 63.1128 46.5065 63.019 46.5704C62.9252 46.6307 62.8802 46.7172 62.8802 46.8226C62.8802 46.9016 62.9064 46.9732 62.9627 47.0296C63.019 47.0861 63.109 47.1388 63.2328 47.1915C63.3566 47.2404 63.5479 47.3119 63.8106 47.3947C64.197 47.5189 64.4896 47.6732 64.6884 47.8651C64.8872 48.0571 64.9885 48.3168 64.9885 48.648C64.9885 49.0281 64.8422 49.3368 64.5458 49.5776C64.2532 49.8147 63.8481 49.9352 63.3341 49.9352C62.9852 49.9427 62.6776 49.8863 62.4075 49.7809Z" fill="#020203"/>
<path d="M66.6709 49.6664C66.3333 49.4858 66.0707 49.2336 65.8868 48.9099C65.6993 48.5863 65.6055 48.2249 65.6055 47.8222C65.6055 47.4157 65.6993 47.0507 65.8868 46.7308C66.0744 46.4108 66.337 46.1587 66.6709 45.978C67.0086 45.7974 67.3912 45.707 67.8189 45.707C68.2466 45.707 68.6254 45.7974 68.9593 45.978C69.2932 46.1587 69.5521 46.4071 69.7397 46.7308C69.9272 47.0507 70.021 47.4157 70.021 47.8222C70.021 48.2249 69.9272 48.5863 69.7397 48.9099C69.5521 49.2298 69.2932 49.482 68.9593 49.6664C68.6254 49.8471 68.2466 49.9412 67.8189 49.9412C67.3912 49.9412 67.0086 49.8471 66.6709 49.6664ZM68.6442 48.6653C68.8543 48.447 68.9556 48.1647 68.9556 47.8185C68.9556 47.4684 68.8505 47.1899 68.6442 46.9792C68.4341 46.7684 68.1603 46.663 67.8189 46.663C67.4775 46.663 67.1999 46.7721 66.9898 46.9829C66.7797 47.1974 66.6709 47.476 66.6709 47.8185C66.6709 48.1722 66.7797 48.4583 66.9898 48.669C67.2036 48.8836 67.4775 48.989 67.8151 48.989C68.1603 48.989 68.4341 48.8836 68.6442 48.6653Z" fill="#020203"/>
<path d="M71.7807 49.6738C71.4506 49.4969 71.1955 49.2485 71.0079 48.9286C70.8204 48.6087 70.7266 48.2474 70.7266 47.8371C70.7266 47.4194 70.8203 47.0505 71.0042 46.7268C71.188 46.4069 71.4468 46.1548 71.7732 45.9741C72.1034 45.7935 72.471 45.7031 72.8837 45.7031C73.4164 45.7031 73.8928 45.8386 74.3093 46.1134L73.8853 46.9263C73.6115 46.7344 73.3076 46.6365 72.97 46.6365C72.6136 46.6365 72.3285 46.7457 72.1146 46.964C71.9045 47.1823 71.7995 47.4645 71.7995 47.8183C71.7995 48.1721 71.9083 48.4581 72.1184 48.6764C72.3322 48.8947 72.6173 49.0039 72.97 49.0039C73.3226 49.0039 73.6377 48.9098 73.9154 48.7216L74.3168 49.5195C74.0917 49.6625 73.8741 49.7717 73.664 49.8357C73.4539 49.9034 73.1913 49.9373 72.8762 49.9373C72.4748 49.941 72.1109 49.8507 71.7807 49.6738Z" fill="#020203"/>
<path d="M75.3246 45C75.2045 44.8795 75.1445 44.729 75.1445 44.5521C75.1445 44.3752 75.2045 44.2246 75.3246 44.1004C75.4446 43.9762 75.5947 43.916 75.771 43.916C75.9473 43.916 76.0974 43.98 76.2174 44.1004C76.3375 44.2246 76.3975 44.3752 76.3975 44.5521C76.3975 44.729 76.3375 44.8795 76.2174 45C76.0974 45.1204 75.9473 45.1806 75.771 45.1806C75.5947 45.1806 75.4446 45.1204 75.3246 45ZM75.2458 45.7903H76.27V49.8589H75.2458V45.7903Z" fill="#020203"/>
<path d="M81.5467 48.8839C81.6329 48.9478 81.768 48.9817 81.9443 48.9817V49.9076H81.858C81.0927 49.9076 80.6575 49.7006 80.545 49.2903C80.3724 49.5049 80.1661 49.6667 79.9222 49.7796C79.6784 49.8925 79.412 49.949 79.1157 49.949C78.7255 49.949 78.3766 49.8586 78.0652 49.6742C77.7539 49.4936 77.5138 49.2414 77.3449 48.9177C77.1724 48.594 77.0898 48.2327 77.0898 47.8338C77.0898 47.4273 77.1761 47.0622 77.3449 46.7386C77.5175 46.4186 77.7576 46.1665 78.0652 45.9858C78.3766 45.8052 78.7255 45.7148 79.1157 45.7148C79.6334 45.7148 80.0573 45.8804 80.3912 46.2154V45.7976H81.4191V48.5639C81.4116 48.7107 81.4566 48.8161 81.5467 48.8839ZM80.3874 47.2504C80.2786 47.0622 80.1323 46.9192 79.941 46.8176C79.7497 46.716 79.5283 46.6633 79.2732 46.6633C78.9431 46.6633 78.673 46.7724 78.4629 46.9832C78.2528 47.1977 78.1515 47.4762 78.1515 47.8187C78.1515 48.1725 78.2528 48.4548 78.4591 48.6693C78.6655 48.8839 78.9356 48.9892 79.2657 48.9892C79.5021 48.9892 79.7234 48.9328 79.9298 48.8236C80.1361 48.7145 80.2899 48.5677 80.3874 48.387V47.2504Z" fill="#020203"/>
<path d="M83.4911 49.5128C83.2173 49.2607 83.0822 48.8542 83.0822 48.2896V46.6562H82.2344V45.7868H83.0822V44.541H84.1177V45.7868H85.2881V46.6562H84.1177V48.1429C84.1177 48.4364 84.1739 48.6472 84.2902 48.7714C84.4065 48.8956 84.5678 48.9558 84.7817 48.9558H85.2881V49.8892H84.7367C84.1777 49.893 83.7613 49.765 83.4911 49.5128Z" fill="#020203"/>
<path d="M86.1957 45C86.0756 44.8795 86.0156 44.729 86.0156 44.5521C86.0156 44.3752 86.0756 44.2246 86.1957 44.1004C86.3157 43.9762 86.4658 43.916 86.6421 43.916C86.8184 43.916 86.9685 43.98 87.0848 44.1004C87.2048 44.2246 87.2649 44.3752 87.2649 44.5521C87.2649 44.729 87.2048 44.8795 87.0848 45C86.9647 45.1204 86.8184 45.1806 86.6421 45.1806C86.462 45.1806 86.3157 45.1204 86.1957 45ZM86.1207 45.7903H87.1486V49.8589H86.1207V45.7903Z" fill="#020203"/>
<path d="M89.0186 49.6664C88.6809 49.4858 88.4183 49.2336 88.2345 48.9099C88.0469 48.5863 87.9531 48.2249 87.9531 47.8222C87.9531 47.4157 88.0469 47.0507 88.2345 46.7308C88.4221 46.4108 88.6847 46.1587 89.0186 45.978C89.3562 45.7974 89.7388 45.707 90.1665 45.707C90.5942 45.707 90.9731 45.7974 91.307 45.978C91.6409 46.1587 91.8997 46.4071 92.0873 46.7308C92.2749 47.0507 92.3687 47.4157 92.3687 47.8222C92.3687 48.2249 92.2749 48.5863 92.0873 48.9099C91.8997 49.2298 91.6409 49.482 91.307 49.6664C90.9731 49.8471 90.5942 49.9412 90.1665 49.9412C89.7388 49.9412 89.3562 49.8471 89.0186 49.6664ZM90.9919 48.6653C91.2019 48.447 91.3032 48.1647 91.3032 47.8185C91.3032 47.4684 91.1982 47.1899 90.9919 46.9792C90.7818 46.7684 90.5079 46.663 90.1665 46.663C89.8251 46.663 89.5475 46.7721 89.3374 46.9829C89.1273 47.1974 89.0223 47.476 89.0223 47.8185C89.0223 48.1722 89.1311 48.4583 89.3412 48.669C89.555 48.8836 89.8289 48.989 90.1665 48.989C90.5079 48.989 90.7818 48.8836 90.9919 48.6653Z" fill="#020203"/>
<path d="M96.7663 46.1396C97.0327 46.4331 97.164 46.8584 97.164 47.423V49.8581H96.1285V47.5585C96.1285 47.2649 96.0535 47.0353 95.9072 46.8735C95.7609 46.7117 95.5508 46.6326 95.277 46.6326C94.853 46.6326 94.5004 46.8283 94.2115 47.2197V49.8581H93.1836V45.7896H94.2115V46.3428C94.5642 45.9138 95.0256 45.6992 95.5996 45.6992C96.1135 45.703 96.5037 45.846 96.7663 46.1396Z" fill="#020203"/>
<path d="M99.4654 47.9594C99.6267 48.0573 99.758 48.1852 99.8555 48.3508C99.9493 48.5164 99.9981 48.6933 99.9981 48.8853C99.9981 49.0772 99.9493 49.2541 99.8555 49.4197C99.758 49.5853 99.6304 49.7133 99.4654 49.8111C99.3003 49.9052 99.124 49.9541 98.9326 49.9541C98.7413 49.9541 98.5612 49.9052 98.3999 49.8111C98.2348 49.7133 98.1073 49.5853 98.0097 49.4197C97.9122 49.2541 97.8672 49.0772 97.8672 48.8853C97.8672 48.6933 97.916 48.5127 98.0097 48.3508C98.1073 48.189 98.2348 48.0573 98.3999 47.9594C98.565 47.8616 98.7413 47.8164 98.9326 47.8164C99.124 47.8164 99.3003 47.8653 99.4654 47.9594ZM99.3566 49.6192C99.4879 49.5439 99.5892 49.4385 99.6642 49.3106C99.7392 49.1788 99.7805 49.0396 99.7805 48.8853C99.7805 48.731 99.743 48.5917 99.6642 48.46C99.5892 48.3283 99.4841 48.2266 99.3566 48.1514C99.2252 48.0761 99.0865 48.0347 98.9326 48.0347C98.7788 48.0347 98.64 48.0723 98.5087 48.1514C98.3774 48.2266 98.2761 48.332 98.2011 48.46C98.126 48.5917 98.0848 48.731 98.0848 48.8853C98.0848 49.0396 98.1223 49.1788 98.2011 49.3106C98.2761 49.4423 98.3812 49.5439 98.5087 49.6192C98.64 49.6945 98.7788 49.7359 98.9326 49.7359C99.0827 49.7359 99.2252 49.6982 99.3566 49.6192ZM99.3078 49.1751C99.3453 49.2089 99.3866 49.2278 99.4278 49.2278H99.4428V49.4686H99.4203C99.3378 49.4686 99.274 49.4574 99.2215 49.4385C99.1727 49.4197 99.124 49.3783 99.0789 49.3219C99.0339 49.2616 98.9814 49.1713 98.9214 49.0471H98.9101H98.8088V49.4649H98.52V48.2944H98.9476C99.0677 48.2944 99.1652 48.3283 99.2403 48.3922C99.3153 48.46 99.3528 48.5465 99.3528 48.6557C99.3528 48.7987 99.2928 48.9079 99.1727 48.9831C99.2253 49.0735 99.2703 49.1374 99.3078 49.1751ZM98.8126 48.81H98.9176C98.9626 48.81 99.0002 48.7987 99.0264 48.7724C99.0527 48.746 99.0677 48.7121 99.0677 48.667C99.0677 48.5767 99.0189 48.5315 98.9176 48.5315H98.8126V48.81Z" fill="#020203"/>
<path d="M27.9974 55.7186C26.8732 41.581 27.7155 33.4326 27.7155 33.4326C27.597 32.5394 25.5217 32.0799 23.0748 32.4012C20.6279 32.7226 18.7383 33.709 18.8568 34.6022C18.8568 34.6022 22.1973 44.3764 24.5737 58.4432C25.7886 57.4879 26.9298 56.5797 27.9974 55.7186Z" fill="white"/>
<path d="M27.7859 14.0063C26.7025 14.7076 25.8629 15.7292 25.3833 16.9299C24.9037 18.1305 24.8076 19.451 25.1084 20.7088C27.6706 16.9078 35.482 20.3393 38.0794 11.6062C36.3499 13.0039 34.0888 13.4055 32.955 13.2738C37.2114 11.5066 39.6455 5.24107 35.8375 0.935547C36.9584 5.99615 30.5434 6.43634 25.5056 7.38098C16.0416 9.17067 14.5011 17.9649 18.7799 22.4503C18.2867 17.1295 22.511 13.9549 27.7795 14.0063H27.7859Z" fill="#C10E21"/>
<path d="M22.2397 26.0706C17.1346 26.7454 13.2241 29.0556 13.4003 30.3954L14.8991 34.4407H14.9792C14.949 34.3606 14.9264 34.2777 14.9119 34.1933C14.6941 32.5321 18.2107 30.7007 22.7682 30.0998C27.3256 29.499 31.1945 30.3569 31.4155 32.0277C31.4251 32.1131 31.4251 32.1993 31.4155 32.2847H31.4475L31.8991 27.9856C31.7197 26.6137 27.348 25.3959 22.2397 26.0706Z" fill="white"/>
<path d="M37.5534 22.1947C35.1039 21.0562 32.3355 20.8097 29.7244 21.4976C27.1134 22.1855 24.8229 23.7647 23.2469 25.9636C27.6154 25.5877 31.2537 26.5677 31.8206 27.7212C31.8595 27.7955 31.8855 27.8759 31.8974 27.959L31.4394 32.2581H31.4074C31.417 32.1726 31.417 32.0864 31.4074 32.001C31.1896 30.3431 27.3208 29.4852 22.7601 30.0732C18.1995 30.6611 14.6861 32.5055 14.9039 34.1666C14.9184 34.2511 14.9409 34.3339 14.9711 34.414H14.8911L13.3922 30.3688C13.2289 29.1189 16.6141 27.0272 21.2132 26.1918C19.6683 23.9027 17.3619 22.2398 14.7068 21.5004C12.0517 20.761 9.22093 20.9935 6.72097 22.1561C0.52054 25.0479 -2.44517 32.4091 2.44856 41.1133C5.9267 47.292 11.3809 51.9574 22.1324 60.3178C22.9747 59.6752 23.785 59.0326 24.5632 58.4157C22.1868 44.3489 18.8464 34.5779 18.8464 34.5747C18.7279 33.6814 20.6175 32.6982 23.0644 32.3769C25.5112 32.0556 27.5866 32.5119 27.7051 33.4051C27.7051 33.4051 27.6442 34.0092 27.577 35.1402C27.3944 38.2312 27.167 45.3546 27.9869 55.7039C34.988 50.0392 39.0331 46.0646 41.813 41.1261C42.185 40.4677 42.5218 39.7899 42.8219 39.0955C46.2103 31.3102 43.2606 24.8487 37.5534 22.1947Z" fill="#C10E21"/>
<path d="M31.8208 27.7188C31.8598 27.793 31.8858 27.8734 31.8977 27.9565L31.4397 32.2556H31.4045C31.3084 33.2967 29.8031 34.3762 27.5804 35.1474C27.3979 38.2384 27.1705 45.3618 27.9904 55.7111C34.9915 50.0464 39.0365 46.0718 41.8165 41.1333C42.1884 40.4749 42.5252 39.7971 42.8253 39.1027L31.8208 27.7188Z" fill="url(#paint0_linear_4928_70307)"/>
<defs>
<linearGradient id="paint0_linear_4928_70307" x1="27.3658" y1="41.7181" x2="43.0943" y2="41.7181" gradientUnits="userSpaceOnUse">
<stop stop-color="#7B1416"/>
<stop offset="1" stop-color="#C10E21"/>
</linearGradient>
</defs>
</svg>
