<svg width="48" height="48" viewBox="0 0 48 48" fill="none" xmlns="http://www.w3.org/2000/svg">
<path d="M17.5 21.0078C21.6421 21.0078 25 17.6499 25 13.5078C25 9.36568 21.6421 6.00781 17.5 6.00781C13.3579 6.00781 10 9.36568 10 13.5078C10 17.6499 13.3579 21.0078 17.5 21.0078ZM17.5 19.0078C14.4624 19.0078 12 16.5454 12 13.5078C12 10.4702 14.4624 8.00781 17.5 8.00781C20.5376 8.00781 23 10.4702 23 13.5078C23 16.5454 20.5376 19.0078 17.5 19.0078Z" fill="#1F1F1F"/>
<path d="M6 36.113C6 29.4844 11.3839 24.113 18.0101 24.113C24.5968 24.113 29.9539 29.4295 29.9997 36.0078H37.087C38.6958 36.0078 40 37.312 40 38.9208C40 40.6257 38.6179 42.0078 36.913 42.0078H31C30.4477 42.0078 30 41.5601 30 41.0078C30 40.4555 30.4477 40.0078 31 40.0078H36.913C37.5134 40.0078 38 39.5211 38 38.9208C38 38.4166 37.5912 38.0078 37.087 38.0078H29.915C28.8574 38.0078 28 37.1504 28 36.0928C28 30.5823 23.523 26.113 18.0101 26.113C12.4861 26.113 8 30.5914 8 36.113V41.0078C8 41.5601 7.55228 42.0078 7 42.0078C6.44772 42.0078 6 41.5601 6 41.0078V36.113Z" fill="#1F1F1F"/>
<path d="M30 8.00781C29.4477 8.00781 29 8.45553 29 9.00781C29 9.5601 29.4477 10.0078 30 10.0078H39C39.5523 10.0078 40 10.4555 40 11.0078V29.0078C40 29.5601 39.5523 30.0078 39 30.0078H34C33.4477 30.0078 33 30.4555 33 31.0078C33 31.5601 33.4477 32.0078 34 32.0078H39C40.6569 32.0078 42 30.6647 42 29.0078V11.0078C42 9.35096 40.6569 8.00781 39 8.00781H30Z" fill="#1F1F1F"/>
</svg>
