<svg width="33" height="33" viewBox="0 0 33 33" fill="none" xmlns="http://www.w3.org/2000/svg">
<path d="M11.9089 14.7988C14.6703 14.7988 16.9089 12.5603 16.9089 9.79883C16.9089 7.0374 14.6703 4.79883 11.9089 4.79883C9.14743 4.79883 6.90885 7.0374 6.90885 9.79883C6.90885 12.5603 9.14743 14.7988 11.9089 14.7988ZM11.9089 13.4655C9.88381 13.4655 8.24219 11.8239 8.24219 9.79883C8.24219 7.77378 9.88381 6.13216 11.9089 6.13216C13.9339 6.13216 15.5755 7.77378 15.5755 9.79883C15.5755 11.8239 13.9339 13.4655 11.9089 13.4655Z" fill="#2E7FA1"/>
<path d="M4.24219 24.869C4.24219 20.4499 7.83146 16.869 12.2489 16.869C16.6401 16.869 20.2115 20.4133 20.242 24.7988H24.9668C26.0394 24.7988 26.9089 25.6683 26.9089 26.7408C26.9089 27.8774 25.9875 28.7988 24.8509 28.7988H20.9089C20.5407 28.7988 20.2422 28.5003 20.2422 28.1321C20.2422 27.764 20.5407 27.4655 20.9089 27.4655H24.8509C25.2511 27.4655 25.5755 27.141 25.5755 26.7408C25.5755 26.4047 25.303 26.1321 24.9668 26.1321H20.1855C19.4804 26.1321 18.9089 25.5606 18.9089 24.8555C18.9089 21.1818 15.9242 18.2023 12.2489 18.2023C8.56624 18.2023 5.57552 21.1879 5.57552 24.869V28.1321C5.57552 28.5003 5.27704 28.7988 4.90885 28.7988C4.54066 28.7988 4.24219 28.5003 4.24219 28.1321V24.869Z" fill="#2E7FA1"/>
<path d="M20.2422 6.13216C19.874 6.13216 19.5755 6.43064 19.5755 6.79883C19.5755 7.16702 19.874 7.46549 20.2422 7.46549H26.2422C26.6104 7.46549 26.9089 7.76397 26.9089 8.13216V20.1322C26.9089 20.5004 26.6104 20.7988 26.2422 20.7988H22.9089C22.5407 20.7988 22.2422 21.0973 22.2422 21.4655C22.2422 21.8337 22.5407 22.1322 22.9089 22.1322H26.2422C27.3468 22.1322 28.2422 21.2367 28.2422 20.1322V8.13216C28.2422 7.02759 27.3468 6.13216 26.2422 6.13216H20.2422Z" fill="#2E7FA1"/>
</svg>
