<svg width="130" height="38" viewBox="0 0 130 38" fill="none" xmlns="http://www.w3.org/2000/svg">
<g clip-path="url(#clip0_4928_70083)">
<path d="M4.3014 35.4487C4.3014 35.6532 4.26 35.8373 4.1841 36.0078C4.10129 36.1783 3.98398 36.3215 3.83907 36.4374C3.68726 36.5533 3.50785 36.642 3.30774 36.7033C3.10763 36.7647 2.88681 36.792 2.6384 36.792C2.28648 36.792 1.97596 36.7442 1.71374 36.6488C1.45152 36.5533 1.21001 36.3965 0.996094 36.1851L1.46532 35.7282C1.56883 35.8305 1.68614 35.9192 1.81034 35.9874C1.93455 36.0555 2.06566 36.1033 2.20367 36.1306C2.34168 36.1578 2.49349 36.1715 2.6522 36.1715C2.94892 36.1715 3.18353 36.1101 3.35604 35.9874C3.52855 35.8646 3.61136 35.6942 3.61136 35.4691C3.61136 35.2646 3.54926 35.1009 3.42505 34.9987C3.36984 34.9441 3.30774 34.9032 3.23184 34.8759C3.15593 34.8486 3.05242 34.8214 2.92132 34.8077L2.37618 34.7327C1.99666 34.6782 1.70684 34.5554 1.49292 34.3645C1.26521 34.16 1.1548 33.8667 1.1548 33.4917C1.1548 33.2258 1.21691 32.994 1.34112 32.7894C1.46532 32.5848 1.64473 32.428 1.87935 32.3189C2.11396 32.2098 2.38998 32.1484 2.7005 32.1484C3.01102 32.1484 3.28014 32.1893 3.50785 32.2712C3.73557 32.353 3.94258 32.4894 4.14269 32.6667L3.69416 33.1099C3.59756 33.0212 3.50095 32.9462 3.39745 32.8985C3.29394 32.8439 3.18353 32.8099 3.06623 32.7894C2.94892 32.7689 2.81781 32.7417 2.6798 32.7417C2.50729 32.7417 2.35548 32.7689 2.22437 32.8303C2.10016 32.8917 1.99666 32.9735 1.93455 33.0826C1.86555 33.1917 1.83105 33.3144 1.83105 33.4508C1.83105 33.6349 1.88625 33.7781 2.00356 33.8804C2.05876 33.9281 2.13467 33.969 2.23127 34.0099C2.32788 34.0509 2.42448 34.0781 2.52799 34.0918L3.05242 34.1668C3.26634 34.2009 3.43885 34.2418 3.56996 34.2963C3.70797 34.3509 3.81837 34.4191 3.91498 34.5077C4.1772 34.7259 4.3014 35.0396 4.3014 35.4487Z" fill="#272525"/>
<path d="M6.20684 36.756H5.49609V32.1738H6.20684V36.756Z" fill="#272525"/>
<path d="M11.7677 36.756H11.057V33.6944L9.99433 35.9309H9.4768L8.38653 33.6944V36.756H7.67578V32.1738H8.38653L9.73901 35.024L11.0639 32.1738H11.7746V36.756H11.7677Z" fill="#272525"/>
<path d="M16.4871 35.2081C16.4871 35.515 16.4181 35.7946 16.2732 36.0332C16.1283 36.2719 15.9281 36.4628 15.6797 36.5923C15.4244 36.7219 15.1415 36.7901 14.8241 36.7901C14.5136 36.7901 14.2306 36.7219 13.9753 36.5923C13.72 36.4628 13.5268 36.2719 13.3819 36.0332C13.237 35.7946 13.168 35.515 13.168 35.2081V32.1738H13.8718V35.1741C13.8718 35.3718 13.9132 35.5491 13.9891 35.6991C14.065 35.8491 14.1754 35.965 14.3203 36.0468C14.4653 36.1287 14.6309 36.1696 14.8241 36.1696C15.0173 36.1696 15.1829 36.1287 15.3278 36.0468C15.4727 35.965 15.5831 35.8491 15.6659 35.7059C15.7487 35.5559 15.7832 35.3786 15.7832 35.1809V32.1806H16.4871V35.2081Z" fill="#272525"/>
<path d="M20.8204 36.756H17.8809V32.1738H18.5916V36.1287H20.8273V36.756H20.8204Z" fill="#272525"/>
<path d="M25.2998 36.756H24.5476L24.2302 35.8355H22.4016L22.0842 36.756H21.332L23.0295 32.1738H23.5954L25.2998 36.756ZM24.037 35.2422L23.3332 33.2103L22.6155 35.2422H24.037Z" fill="#272525"/>
<path d="M28.673 32.8011H27.3964V36.756H26.6926V32.8011H25.416V32.1738H28.673V32.8011Z" fill="#272525"/>
<path d="M30.4334 36.756H29.7227V32.1738H30.4334V36.756Z" fill="#272525"/>
<path d="M35.0702 34.4668C35.0702 34.8282 35.0633 35.1078 35.0495 35.2987C35.0357 35.4896 34.9942 35.6669 34.9321 35.8373C34.87 36.0078 34.7665 36.1646 34.6285 36.3078C34.2973 36.6351 33.8902 36.7988 33.4071 36.7988C32.9241 36.7988 32.517 36.6351 32.1927 36.3147C32.0478 36.1715 31.9443 36.0146 31.8821 35.8442C31.82 35.6737 31.7786 35.4964 31.7648 35.3055C31.751 35.1146 31.7441 34.835 31.7441 34.4736C31.7441 34.194 31.751 33.9758 31.7579 33.8122C31.7648 33.6486 31.7855 33.4985 31.8062 33.3622C31.8338 33.2258 31.8753 33.0962 31.9374 32.9803C31.9995 32.8644 32.0823 32.7485 32.1996 32.6326C32.5308 32.3053 32.931 32.1484 33.414 32.1484C33.8971 32.1484 34.3042 32.3121 34.6354 32.6326C34.7803 32.7758 34.8769 32.9326 34.939 33.1031C35.0011 33.2735 35.0425 33.4508 35.0564 33.6417C35.0633 33.8258 35.0702 34.1054 35.0702 34.4668ZM34.3663 34.4668C34.3663 34.0099 34.3456 33.6895 34.3111 33.5054C34.2766 33.3213 34.2007 33.1644 34.0903 33.0485C34.0075 32.9599 33.9109 32.8917 33.7867 32.8439C33.6625 32.7962 33.5314 32.7689 33.4002 32.7689C33.2691 32.7689 33.138 32.7962 33.0138 32.8439C32.8896 32.8985 32.7861 32.9667 32.7033 33.0485C32.5929 33.1712 32.517 33.3281 32.4825 33.5122C32.448 33.6963 32.4273 34.0168 32.4273 34.4736C32.4273 34.7191 32.4342 34.91 32.4411 35.0532C32.448 35.1964 32.4618 35.3259 32.4825 35.435C32.5032 35.5441 32.5308 35.626 32.5584 35.6873C32.586 35.7487 32.6343 35.8169 32.7033 35.8919C32.7861 35.9805 32.8896 36.0487 33.0138 36.0965C33.138 36.1442 33.2622 36.1715 33.4002 36.1715C33.6832 36.1715 33.9109 36.076 34.0903 35.8919C34.1662 35.8101 34.2214 35.7146 34.2628 35.6123C34.3042 35.5101 34.3318 35.3669 34.3456 35.1828C34.3594 34.9987 34.3663 34.7668 34.3663 34.4668Z" fill="#272525"/>
<path d="M39.8598 36.756H39.2112L37.0721 33.5307V36.756H36.3613V32.1738H37.01L39.156 35.3923V32.1738H39.8598V36.756Z" fill="#272525"/>
<path d="M44.0003 37.236H43.3379V31.6992H44.0003V37.236Z" fill="#005134"/>
<path d="M48.1619 36.756H47.4512V32.1738H48.1619V36.756Z" fill="#272525"/>
<path d="M53.1235 36.756H52.4749L50.3357 33.5307V36.756H49.625V32.1738H50.2736L52.4197 35.3923V32.1738H53.1235V36.756Z" fill="#272525"/>
<path d="M58.0845 36.756H57.4358L55.2967 33.5307V36.756H54.5859V32.1738H55.2346L57.3806 35.3923V32.1738H58.0845V36.756Z" fill="#272525"/>
<path d="M62.7284 34.4668C62.7284 34.8282 62.7215 35.1078 62.7077 35.2987C62.6939 35.4896 62.6525 35.6669 62.5903 35.8373C62.5282 36.0078 62.4247 36.1646 62.2867 36.3078C61.9555 36.6351 61.5484 36.7988 61.0654 36.7988C60.5823 36.7988 60.1752 36.6351 59.8509 36.3147C59.706 36.1715 59.6025 36.0146 59.5404 35.8442C59.4783 35.6737 59.4369 35.4964 59.423 35.3055C59.4092 35.1146 59.4023 34.835 59.4023 34.4736C59.4023 34.194 59.4092 33.9758 59.4161 33.8122C59.423 33.6486 59.4437 33.4985 59.4645 33.3622C59.4921 33.2258 59.5335 33.0962 59.5956 32.9803C59.6577 32.8644 59.7405 32.7485 59.8578 32.6326C60.189 32.3053 60.5892 32.1484 61.0723 32.1484C61.5553 32.1484 61.9624 32.3121 62.2936 32.6326C62.4385 32.7758 62.5351 32.9326 62.5973 33.1031C62.6594 33.2735 62.7008 33.4508 62.7146 33.6417C62.7215 33.8258 62.7284 34.1054 62.7284 34.4668ZM62.0245 34.4668C62.0245 34.0099 62.0038 33.6895 61.9693 33.5054C61.9348 33.3213 61.8589 33.1644 61.7485 33.0485C61.6657 32.9599 61.5691 32.8917 61.4449 32.8439C61.3207 32.7962 61.1896 32.7689 61.0585 32.7689C60.9273 32.7689 60.7962 32.7962 60.672 32.8439C60.5478 32.8985 60.4443 32.9667 60.3615 33.0485C60.2511 33.1712 60.1752 33.3281 60.1407 33.5122C60.1062 33.6963 60.0855 34.0168 60.0855 34.4736C60.0855 34.7191 60.0924 34.91 60.0993 35.0532C60.1062 35.1964 60.12 35.3259 60.1407 35.435C60.1614 35.5441 60.189 35.626 60.2166 35.6873C60.2442 35.7487 60.2925 35.8169 60.3615 35.8919C60.4443 35.9805 60.5478 36.0487 60.672 36.0965C60.7962 36.1442 60.9204 36.1715 61.0585 36.1715C61.3414 36.1715 61.5691 36.076 61.7485 35.8919C61.8244 35.8101 61.8796 35.7146 61.921 35.6123C61.9624 35.5101 61.99 35.3669 62.0038 35.1828C62.0176 34.9987 62.0245 34.7668 62.0245 34.4668Z" fill="#272525"/>
<path d="M66.9928 32.1738L65.454 36.756H64.9019L63.377 32.1738H64.1084L65.1711 35.5082L66.2406 32.1738H66.9928Z" fill="#272525"/>
<path d="M71.0713 36.756H70.3191L70.0017 35.8355H68.1731L67.8557 36.756H67.1035L68.801 32.1738H69.3669L71.0713 36.756ZM69.8016 35.2422L69.0977 33.2103L68.3801 35.2422H69.8016Z" fill="#272525"/>
<path d="M74.4386 32.8011H73.1621V36.756H72.4582V32.8011H71.1816V32.1738H74.4386V32.8011Z" fill="#272525"/>
<path d="M76.2049 36.756H75.4941V32.1738H76.2049V36.756Z" fill="#272525"/>
<path d="M80.8416 34.4668C80.8416 34.8282 80.8347 35.1078 80.8209 35.2987C80.8071 35.4896 80.7657 35.6669 80.7036 35.8373C80.6415 36.0078 80.538 36.1646 80.4 36.3078C80.0688 36.6351 79.6617 36.7988 79.1786 36.7988C78.6956 36.7988 78.2885 36.6351 77.9642 36.3147C77.8192 36.1715 77.7157 36.0146 77.6536 35.8442C77.5915 35.6737 77.5501 35.4964 77.5363 35.3055C77.5225 35.1146 77.5156 34.835 77.5156 34.4736C77.5156 34.194 77.5225 33.9758 77.5294 33.8122C77.5363 33.6486 77.557 33.4985 77.5777 33.3622C77.6053 33.2258 77.6467 33.0962 77.7088 32.9803C77.7709 32.8644 77.8537 32.7485 77.9711 32.6326C78.3023 32.3053 78.7025 32.1484 79.1855 32.1484C79.6686 32.1484 80.0757 32.3121 80.4069 32.6326C80.5518 32.7758 80.6484 32.9326 80.7105 33.1031C80.7726 33.2735 80.814 33.4508 80.8278 33.6417C80.8347 33.8258 80.8416 34.1054 80.8416 34.4668ZM80.1378 34.4668C80.1378 34.0099 80.1171 33.6895 80.0826 33.5054C80.0481 33.3213 79.9722 33.1644 79.8618 33.0485C79.779 32.9599 79.6824 32.8917 79.5582 32.8439C79.434 32.7962 79.3028 32.7689 79.1717 32.7689C79.0406 32.7689 78.9095 32.7962 78.7853 32.8439C78.6611 32.8985 78.5576 32.9667 78.4748 33.0485C78.3644 33.1712 78.2885 33.3281 78.254 33.5122C78.2195 33.6963 78.1988 34.0168 78.1988 34.4736C78.1988 34.7191 78.2057 34.91 78.2126 35.0532C78.2195 35.1964 78.2333 35.3259 78.254 35.435C78.2747 35.5441 78.3023 35.626 78.3299 35.6873C78.3575 35.7487 78.4058 35.8169 78.4748 35.8919C78.5576 35.9805 78.6611 36.0487 78.7853 36.0965C78.9095 36.1442 79.0337 36.1715 79.1717 36.1715C79.4546 36.1715 79.6824 36.076 79.8618 35.8919C79.9377 35.8101 79.9929 35.7146 80.0343 35.6123C80.0757 35.5101 80.1033 35.3669 80.1171 35.1828C80.1309 34.9987 80.1378 34.7668 80.1378 34.4668Z" fill="#272525"/>
<path d="M85.6313 36.756H84.9827L82.8436 33.5307V36.756H82.1328V32.1738H82.7815L84.9275 35.3923V32.1738H85.6313V36.756Z" fill="#272525"/>
<path d="M89.7699 37.236H89.1074V31.6992H89.7699V37.236Z" fill="#005134"/>
<path d="M96.1879 36.7599H93.2207V32.1777H96.1879V32.8051H93.9314V34.1415H95.8567V34.762H93.9314V36.1394H96.1879V36.7599Z" fill="#272525"/>
<path d="M100.709 34.4347V34.6666C100.709 34.912 100.702 35.1302 100.681 35.3143C100.66 35.4984 100.619 35.6825 100.55 35.8598C100.481 36.0371 100.377 36.1939 100.239 36.3303C99.9495 36.6167 99.5493 36.7599 99.0387 36.7599H97.4102V32.1777H99.0387C99.5493 32.1777 99.9495 32.3209 100.239 32.6073C100.377 32.7437 100.481 32.8937 100.55 33.0642C100.619 33.2346 100.66 33.4051 100.681 33.5824C100.702 33.7597 100.709 33.9642 100.709 34.2029V34.4347ZM100.012 34.4415C100.012 34.1756 100.005 33.9711 99.9978 33.8279C99.9909 33.6847 99.9702 33.5483 99.9288 33.4256C99.8874 33.3028 99.8391 33.1937 99.7632 33.1119C99.57 32.9073 99.3078 32.7982 98.9766 32.7982H98.1209V36.1258H98.9766C99.3147 36.1258 99.5769 36.0235 99.7632 35.8189C99.8736 35.703 99.9426 35.5393 99.9702 35.3348C99.9978 35.1302 100.012 34.837 100.012 34.4415Z" fill="#272525"/>
<path d="M105.268 35.2121C105.268 35.5189 105.199 35.7985 105.054 36.0371C104.91 36.2758 104.709 36.4667 104.461 36.5962C104.206 36.7258 103.923 36.794 103.605 36.794C103.288 36.794 103.005 36.7258 102.757 36.5962C102.501 36.4667 102.308 36.2758 102.163 36.0371C102.018 35.7985 101.949 35.5189 101.949 35.2121V32.1777H102.653V35.178C102.653 35.3757 102.694 35.553 102.77 35.703C102.846 35.853 102.964 35.9689 103.102 36.0508C103.24 36.1326 103.412 36.1735 103.605 36.1735C103.799 36.1735 103.964 36.1326 104.116 36.0508C104.261 35.9689 104.371 35.853 104.454 35.7098C104.537 35.5598 104.571 35.3825 104.571 35.1848V32.1846H105.275V35.2121H105.268Z" fill="#272525"/>
<path d="M109.824 35.3873C109.783 35.6123 109.721 35.8169 109.617 35.9941C109.52 36.1714 109.396 36.3214 109.251 36.4374C109.106 36.5533 108.941 36.6487 108.761 36.7033C108.575 36.7647 108.375 36.7919 108.168 36.7919C108.009 36.7919 107.857 36.7715 107.713 36.7374C107.568 36.7033 107.43 36.6419 107.299 36.5669C107.167 36.4919 107.05 36.4033 106.947 36.301C106.802 36.1578 106.698 36.001 106.636 35.8305C106.574 35.66 106.533 35.4827 106.519 35.2918C106.505 35.1009 106.498 34.8213 106.498 34.4599C106.498 34.1804 106.505 33.9622 106.512 33.7985C106.519 33.6349 106.539 33.4849 106.56 33.3485C106.588 33.2121 106.629 33.0826 106.691 32.9666C106.753 32.8507 106.836 32.7348 106.953 32.6189C107.112 32.4621 107.299 32.3393 107.506 32.2575C107.713 32.1757 107.933 32.1348 108.175 32.1348C108.61 32.1348 108.975 32.2575 109.265 32.503C109.555 32.7484 109.748 33.0962 109.824 33.5462H109.106C109.051 33.3076 108.941 33.1167 108.782 32.9735C108.623 32.8303 108.416 32.7621 108.168 32.7621C108.03 32.7621 107.906 32.7894 107.782 32.8371C107.664 32.8848 107.561 32.953 107.478 33.0417C107.416 33.1098 107.368 33.178 107.333 33.2462C107.299 33.3144 107.271 33.403 107.25 33.519C107.229 33.6281 107.216 33.7576 107.209 33.894C107.202 34.0372 107.195 34.2281 107.195 34.4736C107.195 34.719 107.202 34.91 107.209 35.0463C107.216 35.1827 107.229 35.3123 107.25 35.4214C107.271 35.5373 107.299 35.6259 107.333 35.6873C107.368 35.7555 107.416 35.8237 107.478 35.8987C107.561 35.9873 107.664 36.0487 107.782 36.1032C107.899 36.151 108.03 36.1782 108.168 36.1782C108.334 36.1782 108.485 36.1442 108.61 36.0828C108.734 36.0214 108.844 35.926 108.927 35.81C109.01 35.6941 109.072 35.5509 109.106 35.4009H109.824V35.3873Z" fill="#272525"/>
<path d="M114.356 36.7599H113.604L113.287 35.8394H111.458L111.141 36.7599H110.389L112.086 32.1777H112.652L114.356 36.7599ZM113.094 35.2461L112.39 33.2142L111.672 35.2461H113.094Z" fill="#272525"/>
<path d="M117.737 32.8051H116.461V36.7599H115.757V32.8051H114.48V32.1777H117.737V32.8051Z" fill="#272525"/>
<path d="M119.504 36.7599H118.793V32.1777H119.504V36.7599Z" fill="#272525"/>
<path d="M124.142 34.4668C124.142 34.8282 124.136 35.1078 124.122 35.2987C124.108 35.4896 124.067 35.6669 124.004 35.8373C123.942 36.0078 123.839 36.1646 123.701 36.3078C123.37 36.6351 122.962 36.7988 122.479 36.7988C121.996 36.7988 121.589 36.6351 121.265 36.3147C121.12 36.1715 121.017 36.0146 120.954 35.8442C120.892 35.6737 120.851 35.4964 120.837 35.3055C120.823 35.1146 120.816 34.835 120.816 34.4736C120.816 34.194 120.823 33.9758 120.83 33.8122C120.837 33.6486 120.858 33.4985 120.879 33.3622C120.906 33.2258 120.948 33.0962 121.01 32.9803C121.072 32.8644 121.155 32.7485 121.272 32.6326C121.603 32.3053 122.003 32.1484 122.486 32.1484C122.969 32.1484 123.376 32.3121 123.708 32.6326C123.853 32.7758 123.949 32.9326 124.011 33.1031C124.073 33.2735 124.115 33.4508 124.129 33.6417C124.136 33.8258 124.142 34.1054 124.142 34.4668ZM123.439 34.4668C123.439 34.0099 123.418 33.6895 123.383 33.5054C123.349 33.3213 123.273 33.1644 123.163 33.0485C123.08 32.9599 122.983 32.8917 122.859 32.8439C122.735 32.7962 122.604 32.7689 122.473 32.7689C122.341 32.7689 122.21 32.7962 122.086 32.8439C121.962 32.8985 121.858 32.9667 121.776 33.0485C121.665 33.1712 121.589 33.3281 121.555 33.5122C121.52 33.6963 121.5 34.0168 121.5 34.4736C121.5 34.7191 121.506 34.91 121.513 35.0532C121.52 35.1964 121.534 35.3259 121.555 35.435C121.575 35.5441 121.603 35.626 121.631 35.6873C121.658 35.7487 121.707 35.8169 121.776 35.8919C121.858 35.9805 121.962 36.0487 122.086 36.0965C122.21 36.1442 122.335 36.1715 122.473 36.1715C122.755 36.1715 122.983 36.076 123.163 35.8919C123.238 35.8101 123.294 35.7146 123.335 35.6123C123.376 35.5101 123.404 35.3669 123.418 35.1828C123.432 34.9987 123.439 34.7668 123.439 34.4668Z" fill="#272525"/>
<path d="M128.93 36.7599H128.282L126.142 33.5347V36.7599H125.432V32.1777H126.08L128.226 35.3962V32.1777H128.93V36.7599Z" fill="#272525"/>
<path d="M62.9769 3.7689H62.5353C62.28 2.0915 60.3203 1.471 58.6228 1.471C55.9454 1.471 53.8684 3.2234 53.8684 6.35318C53.8684 9.13521 55.973 11.7672 58.9057 11.7672C60.1064 11.7672 60.5825 11.5831 61.6106 11.1263V8.51471C61.6106 8.04422 61.5002 7.68283 60.6929 7.68283H60.4721V7.21234C60.9965 7.22597 61.6589 7.26007 62.2938 7.26007C62.8941 7.26007 63.5152 7.23279 64.1155 7.21234V7.68283H63.7636C63.3841 7.68283 63.0045 7.82602 63.0045 8.46697V11.5968C61.7556 11.9718 60.2789 12.3673 58.6159 12.3673C53.8476 12.3673 52.2812 8.99883 52.2812 6.71457C52.2812 3.35296 54.8137 0.816406 58.7746 0.816406C60.341 0.816406 61.9281 1.30053 62.97 1.64829V3.7689H62.9769Z" fill="#005134"/>
<path d="M71.4217 0.816406C74.5752 0.816406 77.3285 3.33932 77.3285 6.59184C77.3285 9.34659 75.1756 12.3673 71.3734 12.3673C67.9508 12.3673 65.4805 9.81708 65.4805 6.71457C65.4805 3.2234 68.3027 0.816406 71.4217 0.816406ZM71.3734 1.471C69.1584 1.471 67.0676 2.81428 67.0676 6.44864C67.0676 8.9852 68.7444 11.774 71.47 11.774C74.3958 11.774 75.7483 9.64661 75.7483 6.7623C75.7414 4.23939 74.1474 1.471 71.3734 1.471Z" fill="#005134"/>
<path d="M78.9023 11.6854H79.1853C79.9167 11.6854 80.2272 11.4126 80.2272 10.3762V2.6029C80.2272 1.56646 79.9098 1.29371 79.1853 1.29371H78.9023V0.816406C79.4544 0.830044 80.2134 0.864137 80.9311 0.864137C81.9937 0.864137 82.7528 0.816406 83.4497 0.816406C86.2513 0.816406 86.7619 3.03248 86.7619 3.76208C86.7619 5.8486 85.3059 6.48956 84.5124 6.74185L86.6377 10.2807C87.5072 11.7127 87.7625 11.8081 89.046 11.89V12.2241C88.7424 12.2241 88.4594 12.2377 88.1558 12.2377C86.7619 12.2377 86.1133 12.0604 85.2715 10.6762L83.4152 7.6351C83.0495 7.04869 82.8425 7.0146 81.628 6.9805V9.99436C81.628 11.5081 81.8971 11.6854 82.532 11.6854H82.9943V12.1627C82.2974 12.1491 81.6349 12.115 80.938 12.115C80.2272 12.115 79.4613 12.1491 78.9092 12.1627V11.6854H78.9023ZM81.6211 6.26454C81.8902 6.36 82.2836 6.37364 82.6976 6.37364C84.126 6.37364 85.2922 5.71904 85.2922 4.0621C85.2922 3.35978 84.816 1.41645 82.6148 1.41645C82.2353 1.41645 81.9316 1.45054 81.6142 1.47782V6.26454H81.6211Z" fill="#005134"/>
<path d="M90.3496 11.6854H90.6325C91.364 11.6854 91.6745 11.4127 91.6745 10.3762V2.6029C91.6745 1.56646 91.3571 1.29371 90.6325 1.29371H90.3496V0.816406C90.9016 0.830044 91.6607 0.864137 92.3783 0.864137C93.648 0.864137 94.9315 0.816406 96.1943 0.816406C100.473 0.816406 101.977 4.32121 101.977 6.38046C101.977 8.70563 100.459 12.1627 95.6077 12.1627C94.6417 12.1627 93.5031 12.115 92.3783 12.115C91.6676 12.115 90.9016 12.1491 90.3496 12.1627V11.6854ZM93.0753 10.1035C93.0753 11.3445 93.579 11.5558 95.3869 11.5558C98.1609 11.5558 100.452 10.3421 100.452 6.78958C100.452 4.46441 99.0097 1.35508 95.0833 1.35508C94.4209 1.35508 93.7515 1.41645 93.0753 1.48464V10.1035Z" fill="#005134"/>
<path d="M109.568 0.816406C112.722 0.816406 115.475 3.33932 115.475 6.59184C115.475 9.34659 113.322 12.3673 109.52 12.3673C106.097 12.3673 103.627 9.81708 103.627 6.71457C103.627 3.2234 106.449 0.816406 109.568 0.816406ZM109.52 1.471C107.305 1.471 105.214 2.81428 105.214 6.44864C105.214 8.9852 106.891 11.774 109.617 11.774C112.549 11.774 113.895 9.64661 113.895 6.7623C113.895 4.23939 112.294 1.471 109.52 1.471Z" fill="#005134"/>
<path d="M117.214 11.6867H117.469C118.311 11.6867 118.449 11.3389 118.497 9.68197C118.559 7.60227 118.594 4.60205 118.594 2.77464C118.594 1.63592 118.249 1.40408 117.455 1.40408H117.014V0.933594C117.441 0.947231 117.918 0.981324 118.408 0.981324C118.849 0.981324 119.263 0.947231 119.657 0.933594L127.116 10.0638H127.15L127.054 3.5997C127.026 1.78593 126.785 1.4109 125.929 1.4109H125.736V0.933594C126.226 0.947231 126.861 0.981324 127.447 0.981324C128.02 0.981324 128.586 0.947231 129.158 0.933594V1.40408H128.903C128.413 1.40408 127.951 1.57455 127.903 3.10876L127.62 12.3003H127.144L119.291 2.71327H119.256C119.256 5.16118 119.291 7.58863 119.353 10.0297C119.387 11.3253 119.636 11.6867 120.381 11.6867H120.699V12.1572C120.174 12.1435 119.546 12.1094 118.953 12.1094C118.352 12.1094 117.704 12.1367 117.214 12.1572V11.6867Z" fill="#005134"/>
<path d="M64.4884 18.4442H64.1917C63.7087 17.4896 62.8185 15.6894 59.2993 15.6894C55.5247 15.6894 54.3172 19.1261 54.3172 21.8263C54.3172 26.2039 57.4569 27.704 59.3959 27.704C62.3148 27.704 63.6534 26.0675 64.5298 24.9833H64.6609V26.3811C64.0123 26.988 62.4321 28.4745 59.5477 28.4745C55.3246 28.4745 52.4609 25.8493 52.4609 22.1536C52.4609 18.6078 54.9727 14.9121 59.3752 14.9121C61.2176 14.9121 62.9841 15.4781 63.6328 15.6826C63.9847 15.7917 64.3366 15.9213 64.5643 15.9417L64.4884 18.4442Z" fill="#005134"/>
<path d="M66.1359 27.691H66.4672C67.3228 27.691 67.6954 27.3773 67.6954 26.184V17.2174C67.6954 16.0242 67.3228 15.7105 66.4672 15.7105H66.1359V15.1582C66.7294 15.1787 68.8478 15.2128 70.7109 15.2128C72.9053 15.2128 73.7816 15.1718 75.0789 15.1582C75.1134 16.2969 75.1548 17.2925 75.2445 18.2812H74.7201C74.5338 16.9924 74.4027 15.8537 71.1112 15.8537H69.3239V21.0564H70.9386C73.2089 21.0564 73.2848 20.6677 73.3193 19.5835H73.8368C73.8161 20.0063 73.8023 20.5791 73.8023 21.3837C73.8023 22.0996 73.823 22.686 73.8368 23.0542H73.3193C73.2227 22.1337 73.2089 21.7519 71.1043 21.7519H69.317V26.1636C69.317 27.2682 69.7242 27.5409 70.9179 27.5409H71.4217C74.5476 27.5409 75.3618 26.9545 75.6585 24.9157H76.1761C76.045 26.0545 75.9346 27.1182 75.8035 28.2433C74.6856 28.2228 72.6983 28.1887 70.6902 28.1887C68.3855 28.1887 66.7087 28.2228 66.1152 28.2433V27.691H66.1359Z" fill="#005134"/>
<path d="M77.8265 27.69H78.1233C79.11 27.69 79.2756 27.2877 79.3308 25.358C79.4067 22.9305 79.4412 19.4394 79.4412 17.3119C79.4412 15.9891 79.0341 15.7164 78.1026 15.7164H77.5781V15.1641C78.0819 15.1845 78.6408 15.2186 79.2135 15.2186C79.7311 15.2186 80.221 15.1777 80.6833 15.1641L89.44 25.8012H89.4745L89.3641 18.2666C89.3296 16.1528 89.0467 15.7164 88.0461 15.7164H87.8253V15.1641C88.398 15.1845 89.1433 15.2186 89.8333 15.2186C90.5026 15.2186 91.172 15.1777 91.8413 15.1641V15.7164H91.5446C90.965 15.7164 90.4267 15.9141 90.3715 17.7006L90.0403 28.4128H89.4814L80.2555 17.2369H80.221C80.221 20.0872 80.2555 22.9169 80.3314 25.7603C80.3659 27.2672 80.6626 27.69 81.539 27.69H81.9116V28.2423C81.2975 28.2219 80.5522 28.1878 79.8691 28.1878C79.1652 28.1878 78.3993 28.2219 77.8265 28.2423V27.69Z" fill="#005134"/>
<path d="M96.0638 27.691H96.4916C97.4922 27.691 97.6785 27.4523 97.6785 25.9454V15.9287H95.56C93.5727 15.9287 93.3312 17.0674 93.2208 18.4994H92.5859V15.1582C93.1449 15.1787 96.0845 15.2128 98.4996 15.2128C100.728 15.2128 103.778 15.1718 104.413 15.1582V18.4994H103.778C103.668 17.0674 103.427 15.9287 101.432 15.9287H99.3139V25.9454C99.3139 27.4523 99.5002 27.691 100.501 27.691H100.929V28.2433C100.225 28.2228 99.4243 28.1887 98.4927 28.1887C97.5612 28.1887 96.7607 28.2228 96.0569 28.2433V27.691H96.0638Z" fill="#005134"/>
<path d="M105.414 27.691H105.745C106.601 27.691 106.974 27.3773 106.974 26.184V17.2174C106.974 16.0242 106.601 15.7105 105.745 15.7105H105.414V15.1582C106.008 15.1787 108.126 15.2128 109.989 15.2128C112.184 15.2128 113.06 15.1718 114.357 15.1582C114.392 16.2969 114.433 17.2925 114.523 18.2812H113.998C113.812 16.9924 113.681 15.8537 110.389 15.8537H108.602V21.0564H110.217C112.487 21.0564 112.563 20.6677 112.598 19.5835H113.122C113.101 20.0063 113.087 20.5791 113.087 21.3837C113.087 22.0996 113.108 22.686 113.122 23.0542H112.598C112.501 22.1337 112.487 21.7519 110.383 21.7519H108.595V26.1636C108.595 27.2682 109.002 27.5409 110.196 27.5409H110.7C113.826 27.5409 114.64 26.9545 114.937 24.9157H115.461C115.33 26.0545 115.22 27.1182 115.089 28.2433C113.971 28.2228 111.983 28.1887 109.975 28.1887C107.671 28.1887 105.994 28.2228 105.4 28.2433V27.691H105.414Z" fill="#005134"/>
<path d="M117.131 27.691H117.469C118.325 27.691 118.697 27.3773 118.697 26.184V17.2174C118.697 16.0242 118.325 15.7105 117.469 15.7105H117.131V15.1582C117.78 15.1787 118.677 15.2128 119.512 15.2128C120.76 15.2128 121.651 15.1582 122.472 15.1582C125.763 15.1582 126.357 17.7084 126.357 18.5539C126.357 20.9609 124.645 21.6973 123.714 21.9905L126.205 26.0681C127.226 27.7182 127.523 27.8341 129.034 27.9228V28.3115C128.682 28.3115 128.344 28.3319 127.992 28.3319C126.357 28.3319 125.591 28.1274 124.604 26.5318L122.43 23.0202C122.003 22.3383 121.761 22.3042 120.326 22.2701V25.7408C120.326 27.4864 120.643 27.691 121.388 27.691H121.927V28.2433C121.112 28.2228 120.326 28.1887 119.512 28.1887C118.677 28.1887 117.78 28.2228 117.131 28.2433V27.691ZM120.326 21.445C120.643 21.5541 121.106 21.5746 121.589 21.5746C123.265 21.5746 124.639 20.8177 124.639 18.9085C124.639 18.0971 124.08 15.8605 121.499 15.8605C121.05 15.8605 120.698 15.8946 120.326 15.9355V21.445Z" fill="#005134"/>
<path d="M36.1407 19.6236V0.919922H47.6644C47.6644 0.919922 47.6506 21.826 47.6506 22.5761C47.6506 26.6809 36.1476 28.3311 25.2656 28.3311C25.2656 27.8128 25.2725 26.5446 25.2725 25.7263C30.717 25.7127 36.1407 24.5876 36.1407 19.6236Z" fill="#005134"/>
<path d="M12.5541 19.6236L12.5472 0.919922H1.02344C1.02344 0.919922 1.03724 21.826 1.03724 22.5761C1.03724 26.6809 12.5472 28.3311 23.4223 28.3311C23.4223 27.8128 23.4223 26.5446 23.4223 25.7263C17.9778 25.7127 12.5541 24.5876 12.5541 19.6236Z" fill="#D7722D"/>
</g>
<defs>
<clipPath id="clip0_4928_70083">
<rect width="130" height="37.2868" fill="white" transform="translate(0 0.5)"/>
</clipPath>
</defs>
</svg>
