<svg width="33" height="32" viewBox="0 0 33 32" fill="none" xmlns="http://www.w3.org/2000/svg">
<path d="M15.5755 3.35448C8.88981 3.70116 3.57552 9.23192 3.57552 16.0039C3.57552 22.9995 9.24658 28.6706 16.2422 28.6706C23.2378 28.6706 28.9089 22.9995 28.9089 16.0039C28.9089 15.6357 29.2073 15.3372 29.5755 15.3372C29.9437 15.3372 30.2422 15.6357 30.2422 16.0039C30.2422 23.7359 23.9742 30.0039 16.2422 30.0039C8.5102 30.0039 2.24219 23.7359 2.24219 16.0039C2.24219 8.27192 8.5102 2.00391 16.2422 2.00391C16.6104 2.00391 16.9089 2.30238 16.9089 2.67057V6.00391C16.9089 6.3721 16.6104 6.67057 16.2422 6.67057C11.0875 6.67057 6.90885 10.8492 6.90885 16.0039C6.90885 21.1586 11.0875 25.3372 16.2422 25.3372C21.3968 25.3372 25.5755 21.1586 25.5755 16.0039C25.5755 15.6357 25.874 15.3372 26.2422 15.3372C26.6104 15.3372 26.9089 15.6357 26.9089 16.0039C26.9089 21.8949 22.1332 26.6706 16.2422 26.6706C10.3512 26.6706 5.57552 21.8949 5.57552 16.0039C5.57552 10.3368 9.99503 5.70187 15.5755 5.35773V3.35448Z" fill="#2E7FA1"/>
<path d="M19.4862 11.7185C19.6703 11.3996 19.561 10.9919 19.2421 10.8078C18.9233 10.6237 18.5156 10.7329 18.3315 11.0518L12.9981 20.2894C12.814 20.6083 12.9233 21.016 13.2421 21.2001C13.561 21.3842 13.9687 21.2749 14.1528 20.9561L19.4862 11.7185Z" fill="#2E7FA1"/>
<path d="M12.9089 16.0039C14.0134 16.0039 14.9089 15.1085 14.9089 14.0039C14.9089 12.8993 14.0134 12.0039 12.9089 12.0039C11.8043 12.0039 10.9089 12.8993 10.9089 14.0039C10.9089 15.1085 11.8043 16.0039 12.9089 16.0039ZM12.9089 14.6706C12.5407 14.6706 12.2422 14.3721 12.2422 14.0039C12.2422 13.6357 12.5407 13.3372 12.9089 13.3372C13.277 13.3372 13.5755 13.6357 13.5755 14.0039C13.5755 14.3721 13.277 14.6706 12.9089 14.6706Z" fill="#2E7FA1"/>
<path d="M21.5755 18.0039C21.5755 16.8993 20.6801 16.0039 19.5755 16.0039C18.471 16.0039 17.5755 16.8993 17.5755 18.0039C17.5755 19.1085 18.471 20.0039 19.5755 20.0039C20.6801 20.0039 21.5755 19.1085 21.5755 18.0039ZM20.2422 18.0039C20.2422 18.3721 19.9437 18.6706 19.5755 18.6706C19.2073 18.6706 18.9089 18.3721 18.9089 18.0039C18.9089 17.6357 19.2073 17.3372 19.5755 17.3372C19.9437 17.3372 20.2422 17.6357 20.2422 18.0039Z" fill="#2E7FA1"/>
</svg>
