<svg width="24" height="24" viewBox="0 0 24 24" fill="none" xmlns="http://www.w3.org/2000/svg">
<path d="M8.75 10.5C10.8211 10.5 12.5 8.82107 12.5 6.75C12.5 4.67893 10.8211 3 8.75 3C6.67893 3 5 4.67893 5 6.75C5 8.82107 6.67893 10.5 8.75 10.5ZM8.75 9.5C7.23122 9.5 6 8.26878 6 6.75C6 5.23122 7.23122 4 8.75 4C10.2688 4 11.5 5.23122 11.5 6.75C11.5 8.26878 10.2688 9.5 8.75 9.5Z" fill="#276D8B"/>
<path d="M3 18.0526C3 14.7383 5.69195 12.0526 9.00506 12.0526C12.2984 12.0526 14.977 14.7108 14.9999 18H18.5435C19.3479 18 20 18.6521 20 19.4565C20 20.3089 19.309 21 18.4565 21H15.5C15.2239 21 15 20.7761 15 20.5C15 20.2238 15.2239 20 15.5 20H18.4565C18.7567 20 19 19.7567 19 19.4565C19 19.2044 18.7956 19 18.5435 19H14.9575C14.4287 19 14 18.5713 14 18.0425C14 15.2873 11.7615 13.0526 9.00506 13.0526C6.24304 13.0526 4 15.2918 4 18.0526V20.5C4 20.7761 3.77614 21 3.5 21C3.22386 21 3 20.7761 3 20.5V18.0526Z" fill="#276D8B"/>
<path d="M15 4C14.7239 4 14.5 4.22386 14.5 4.5C14.5 4.77614 14.7239 5 15 5H19.5C19.7762 5 20 5.22386 20 5.5V14.5C20 14.7761 19.7762 15 19.5 15H17C16.7239 15 16.5 15.2239 16.5 15.5C16.5 15.7761 16.7239 16 17 16H19.5C20.3284 16 21 15.3284 21 14.5V5.5C21 4.67157 20.3284 4 19.5 4H15Z" fill="#276D8B"/>
</svg>
